
<svg xmlns="http://www.w3.org/2000/svg">

<!-- ic:round-minimize -->
<symbol id="minimize" preserveAspectRatio="xMidYMid meet" viewBox="0 0 24 24">
	<path d="M7 19h10c.55 0 1 .45 1 1s-.45 1-1 1H7c-.55 0-1-.45-1-1s.45-1 1-1z" fill="currentColor"/>
</symbol>

<!-- ic:round-close -->
<symbol id="close" preserveAspectRatio="xMidYMid meet" viewBox="0 0 24 24">
	<path d="M18.3 5.71a.996.996 0 0 0-1.41 0L12 10.59L7.11 5.7A.996.996 0 1 0 5.7 7.11L10.59 12L5.7 16.89a.996.996 0 1 0 1.41 1.41L12 13.41l4.89 4.89a.996.996 0 1 0 1.41-1.41L13.41 12l4.89-4.89c.38-.38.38-1.02 0-1.4z" fill="currentColor"/>
</symbol>

<!-- ic:round-fullscreen -->
<symbol id="fullscreen" preserveAspectRatio="xMidYMid meet" viewBox="0 0 24 24">
	<path d="M6 14c-.55 0-1 .45-1 1v3c0 .55.45 1 1 1h3c.55 0 1-.45 1-1s-.45-1-1-1H7v-2c0-.55-.45-1-1-1zm0-4c.55 0 1-.45 1-1V7h2c.55 0 1-.45 1-1s-.45-1-1-1H6c-.55 0-1 .45-1 1v3c0 .55.45 1 1 1zm11 7h-2c-.55 0-1 .45-1 1s.45 1 1 1h3c.55 0 1-.45 1-1v-3c0-.55-.45-1-1-1s-1 .45-1 1v2zM14 6c0 .55.45 1 1 1h2v2c0 .55.45 1 1 1s1-.45 1-1V6c0-.55-.45-1-1-1h-3c-.55 0-1 .45-1 1z" fill="currentColor"/>
</symbol>

<!-- ic:round-close-fullscreen -->
<symbol id="close_fullscreen" preserveAspectRatio="xMidYMid meet" viewBox="0 0 24 24">
	<path d="M21.29 4.12L16.7 8.71l1.59 1.59c.63.63.18 1.71-.71 1.71H13c-.55 0-1-.45-1-1v-4.6c0-.89 1.08-1.34 1.71-.71l1.59 1.59l4.59-4.59a.996.996 0 0 1 1.41 0c.38.4.38 1.03-.01 1.42zM4.12 21.29l4.59-4.59l1.59 1.59c.63.63 1.71.18 1.71-.71V13c0-.55-.45-1-1-1h-4.6c-.89 0-1.34 1.08-.71 1.71l1.59 1.59l-4.59 4.59a.996.996 0 0 0 0 1.41c.4.38 1.03.38 1.42-.01z" fill="currentColor"/>
</symbol>

<!-- ic:round-play-arrow -->
<symbol id="play_arrow" preserveAspectRatio="xMidYMid meet" viewBox="0 0 24 24">
	<path d="M8 6.82v10.36c0 .79.87 1.27 1.54.84l8.14-5.18a1 1 0 0 0 0-1.69L9.54 5.98A.998.998 0 0 0 8 6.82z" fill="currentColor"/>
</symbol>

<!-- ic:round-pause -->
<symbol id="pause" preserveAspectRatio="xMidYMid meet" viewBox="0 0 24 24">
	<path d="M8 19c1.1 0 2-.9 2-2V7c0-1.1-.9-2-2-2s-2 .9-2 2v10c0 1.1.9 2 2 2zm6-12v10c0 1.1.9 2 2 2s2-.9 2-2V7c0-1.1-.9-2-2-2s-2 .9-2 2z" fill="currentColor"/>
</symbol>

<!-- ic:round-skip-next -->
<symbol id="skip_next" preserveAspectRatio="xMidYMid meet" viewBox="0 0 24 24">
	<path d="M7.58 16.89l5.77-4.07c.56-.4.56-1.24 0-1.63L7.58 7.11C6.91 6.65 6 7.12 6 7.93v8.14c0 .81.91 1.28 1.58.82zM16 7v10c0 .55.45 1 1 1s1-.45 1-1V7c0-.55-.45-1-1-1s-1 .45-1 1z" fill="currentColor"/>
</symbol>

<!-- ic:round-skip-previous -->
<symbol id="skip_previous" preserveAspectRatio="xMidYMid meet" viewBox="0 0 24 24">
	<path d="M7 6c.55 0 1 .45 1 1v10c0 .55-.45 1-1 1s-1-.45-1-1V7c0-.55.45-1 1-1zm3.66 6.82l5.77 4.07c.66.47 1.58-.01 1.58-.82V7.93c0-.81-.91-1.28-1.58-.82l-5.77 4.07a1 1 0 0 0 0 1.64z" fill="currentColor"/>
</symbol>

<!-- ic:shuffle -->
<svg id="shuffle" preserveAspectRatio="xMidYMid meet" viewBox="0 0 24 24">
	<path d="M10.59 9.17L6.12 4.7a.996.996 0 1 0-1.41 1.41l4.46 4.46l1.42-1.4zm4.76-4.32l1.19 1.19L4.7 17.88a.996.996 0 1 0 1.41 1.41L17.96 7.46l1.19 1.19a.5.5 0 0 0 .85-.36V4.5c0-.28-.22-.5-.5-.5h-3.79a.5.5 0 0 0-.36.85zm-.52 8.56l-1.41 1.41l3.13 3.13l-1.2 1.2a.5.5 0 0 0 .36.85h3.79c.28 0 .5-.22.5-.5v-3.79c0-.45-.54-.67-.85-.35l-1.19 1.19l-3.13-3.14z" fill="currentColor"/>
</svg>

<!-- ic:round-repeat -->
<symbol id="repeat" preserveAspectRatio="xMidYMid meet" viewBox="0 0 24 24">
	<path d="M7 7h10v1.79c0 .45.54.67.85.35l2.79-2.79c.2-.2.2-.51 0-.71l-2.79-2.79a.5.5 0 0 0-.85.36V5H6c-.55 0-1 .45-1 1v4c0 .55.45 1 1 1s1-.45 1-1V7zm10 10H7v-1.79c0-.45-.54-.67-.85-.35l-2.79 2.79c-.2.2-.2.51 0 .71l2.79 2.79a.5.5 0 0 0 .85-.36V19h11c.55 0 1-.45 1-1v-4c0-.55-.45-1-1-1s-1 .45-1 1v3z" fill="currentColor"/>
</symbol>

<!-- ic:round-repeat-one -->
<svg id="repeat_one" preserveAspectRatio="xMidYMid meet" viewBox="0 0 24 24">
	<path d="M7 7h10v1.79c0 .45.54.67.85.35l2.79-2.79c.2-.2.2-.51 0-.71l-2.79-2.79a.5.5 0 0 0-.85.36V5H6c-.55 0-1 .45-1 1v4c0 .55.45 1 1 1s1-.45 1-1V7zm10 10H7v-1.79c0-.45-.54-.67-.85-.35l-2.79 2.79c-.2.2-.2.51 0 .71l2.79 2.79a.5.5 0 0 0 .85-.36V19h11c.55 0 1-.45 1-1v-4c0-.55-.45-1-1-1s-1 .45-1 1v3zm-4-2.75V9.81c0-.45-.36-.81-.81-.81a.74.74 0 0 0-.36.09l-1.49.74a.61.61 0 0 0-.34.55c0 .34.28.62.62.62h.88v3.25c0 .41.34.75.75.75s.75-.34.75-.75z" fill="currentColor"/>
</svg>

<!-- ic:round-mic -->
<symbol id="mic" preserveAspectRatio="xMidYMid meet" viewBox="0 0 24 24">
	<path d="M12 14c1.66 0 3-1.34 3-3V5c0-1.66-1.34-3-3-3S9 3.34 9 5v6c0 1.66 1.34 3 3 3zm5.91-3c-.49 0-.9.36-.98.85C16.52 14.2 14.47 16 12 16s-4.52-1.8-4.93-4.15a.998.998 0 0 0-.98-.85c-.61 0-1.09.54-1 1.14c.49 3 2.89 5.35 5.91 5.78V20c0 .55.45 1 1 1s1-.45 1-1v-2.08a6.993 6.993 0 0 0 5.91-5.78c.1-.6-.39-1.14-1-1.14z" fill="currentColor"/>
</symbol>

<!-- zmdi:lastfm -->
<symbol id="lastfm" preserveAspectRatio="xMidYMid meet" viewBox="0 0 432 384">
	<path d="M325 312q-58 0-87-22.5T196 225l-16-49q-11-32-25-48t-44-16q-25 0-42.5 20T51 194q0 35 16 56t42 21q17 0 33-7t23-14l8-7l15 43q-3 3-9 7t-27 11.5t-45 7.5q-52 0-79.5-30T0 196q0-59 28.5-91.5T110 72q49 0 76 20t42 68l16 50q10 30 28.5 46t53.5 16q51 0 51-26q0-23-33-30l-34-8q-56-14-56-65q0-38 24.5-54.5T341 72q78 0 84 63l-49 6q-3-30-38-30t-35 26q0 23 28 29l31 7q65 15 65 71q0 68-102 68z" fill="currentColor"></path>
</symbol>

</svg>