
<svg xmlns="http://www.w3.org/2000/svg">

<!-- ic:round-minimize -->
<symbol id="minimize" preserveAspectRatio="xMidYMid meet" viewBox="0 0 24 24">
	<path d="M7 19h10c.55 0 1 .45 1 1s-.45 1-1 1H7c-.55 0-1-.45-1-1s.45-1 1-1z" fill="currentColor"/>
</symbol>

<!-- ic:round-close -->
<symbol id="close" preserveAspectRatio="xMidYMid meet" viewBox="0 0 24 24">
	<path d="M18.3 5.71a.996.996 0 0 0-1.41 0L12 10.59L7.11 5.7A.996.996 0 1 0 5.7 7.11L10.59 12L5.7 16.89a.996.996 0 1 0 1.41 1.41L12 13.41l4.89 4.89a.996.996 0 1 0 1.41-1.41L13.41 12l4.89-4.89c.38-.38.38-1.02 0-1.4z" fill="currentColor"/>
</symbol>

<!-- ic:round-fullscreen -->
<symbol id="fullscreen" preserveAspectRatio="xMidYMid meet" viewBox="0 0 24 24">
	<path d="M6 14c-.55 0-1 .45-1 1v3c0 .55.45 1 1 1h3c.55 0 1-.45 1-1s-.45-1-1-1H7v-2c0-.55-.45-1-1-1zm0-4c.55 0 1-.45 1-1V7h2c.55 0 1-.45 1-1s-.45-1-1-1H6c-.55 0-1 .45-1 1v3c0 .55.45 1 1 1zm11 7h-2c-.55 0-1 .45-1 1s.45 1 1 1h3c.55 0 1-.45 1-1v-3c0-.55-.45-1-1-1s-1 .45-1 1v2zM14 6c0 .55.45 1 1 1h2v2c0 .55.45 1 1 1s1-.45 1-1V6c0-.55-.45-1-1-1h-3c-.55 0-1 .45-1 1z" fill="currentColor"/>
</symbol>

<!-- ic:round-close-fullscreen -->
<symbol id="close_fullscreen" preserveAspectRatio="xMidYMid meet" viewBox="0 0 24 24">
	<path d="M21.29 4.12L16.7 8.71l1.59 1.59c.63.63.18 1.71-.71 1.71H13c-.55 0-1-.45-1-1v-4.6c0-.89 1.08-1.34 1.71-.71l1.59 1.59l4.59-4.59a.996.996 0 0 1 1.41 0c.38.4.38 1.03-.01 1.42zM4.12 21.29l4.59-4.59l1.59 1.59c.63.63 1.71.18 1.71-.71V13c0-.55-.45-1-1-1h-4.6c-.89 0-1.34 1.08-.71 1.71l1.59 1.59l-4.59 4.59a.996.996 0 0 0 0 1.41c.4.38 1.03.38 1.42-.01z" fill="currentColor"/>
</symbol>

<!-- ic:round-play-arrow -->
<symbol id="play_arrow" preserveAspectRatio="xMidYMid meet" viewBox="0 0 24 24">
	<path d="M8 6.82v10.36c0 .79.87 1.27 1.54.84l8.14-5.18a1 1 0 0 0 0-1.69L9.54 5.98A.998.998 0 0 0 8 6.82z" fill="currentColor"/>
</symbol>

<!-- ic:round-pause -->
<symbol id="pause" preserveAspectRatio="xMidYMid meet" viewBox="0 0 24 24">
	<path d="M8 19c1.1 0 2-.9 2-2V7c0-1.1-.9-2-2-2s-2 .9-2 2v10c0 1.1.9 2 2 2zm6-12v10c0 1.1.9 2 2 2s2-.9 2-2V7c0-1.1-.9-2-2-2s-2 .9-2 2z" fill="currentColor"/>
</symbol>

<!-- ic:round-skip-next -->
<symbol id="skip_next" preserveAspectRatio="xMidYMid meet" viewBox="0 0 24 24">
	<path d="M7.58 16.89l5.77-4.07c.56-.4.56-1.24 0-1.63L7.58 7.11C6.91 6.65 6 7.12 6 7.93v8.14c0 .81.91 1.28 1.58.82zM16 7v10c0 .55.45 1 1 1s1-.45 1-1V7c0-.55-.45-1-1-1s-1 .45-1 1z" fill="currentColor"/>
</symbol>

<!-- ic:round-skip-previous -->
<symbol id="skip_previous" preserveAspectRatio="xMidYMid meet" viewBox="0 0 24 24">
	<path d="M7 6c.55 0 1 .45 1 1v10c0 .55-.45 1-1 1s-1-.45-1-1V7c0-.55.45-1 1-1zm3.66 6.82l5.77 4.07c.66.47 1.58-.01 1.58-.82V7.93c0-.81-.91-1.28-1.58-.82l-5.77 4.07a1 1 0 0 0 0 1.64z" fill="currentColor"/>
</symbol>

<!-- ic:shuffle -->
<svg id="shuffle" preserveAspectRatio="xMidYMid meet" viewBox="0 0 24 24">
	<path d="M10.59 9.17L6.12 4.7a.996.996 0 1 0-1.41 1.41l4.46 4.46l1.42-1.4zm4.76-4.32l1.19 1.19L4.7 17.88a.996.996 0 1 0 1.41 1.41L17.96 7.46l1.19 1.19a.5.5 0 0 0 .85-.36V4.5c0-.28-.22-.5-.5-.5h-3.79a.5.5 0 0 0-.36.85zm-.52 8.56l-1.41 1.41l3.13 3.13l-1.2 1.2a.5.5 0 0 0 .36.85h3.79c.28 0 .5-.22.5-.5v-3.79c0-.45-.54-.67-.85-.35l-1.19 1.19l-3.13-3.14z" fill="currentColor"/>
</svg>

<!-- ic:round-repeat -->
<symbol id="repeat" preserveAspectRatio="xMidYMid meet" viewBox="0 0 24 24">
	<path d="M7 7h10v1.79c0 .45.54.67.85.35l2.79-2.79c.2-.2.2-.51 0-.71l-2.79-2.79a.5.5 0 0 0-.85.36V5H6c-.55 0-1 .45-1 1v4c0 .55.45 1 1 1s1-.45 1-1V7zm10 10H7v-1.79c0-.45-.54-.67-.85-.35l-2.79 2.79c-.2.2-.2.51 0 .71l2.79 2.79a.5.5 0 0 0 .85-.36V19h11c.55 0 1-.45 1-1v-4c0-.55-.45-1-1-1s-1 .45-1 1v3z" fill="currentColor"/>
</symbol>

<!-- ic:round-repeat-one -->
<svg id="repeat_one" preserveAspectRatio="xMidYMid meet" viewBox="0 0 24 24">
	<path d="M7 7h10v1.79c0 .45.54.67.85.35l2.79-2.79c.2-.2.2-.51 0-.71l-2.79-2.79a.5.5 0 0 0-.85.36V5H6c-.55 0-1 .45-1 1v4c0 .55.45 1 1 1s1-.45 1-1V7zm10 10H7v-1.79c0-.45-.54-.67-.85-.35l-2.79 2.79c-.2.2-.2.51 0 .71l2.79 2.79a.5.5 0 0 0 .85-.36V19h11c.55 0 1-.45 1-1v-4c0-.55-.45-1-1-1s-1 .45-1 1v3zm-4-2.75V9.81c0-.45-.36-.81-.81-.81a.74.74 0 0 0-.36.09l-1.49.74a.61.61 0 0 0-.34.55c0 .34.28.62.62.62h.88v3.25c0 .41.34.75.75.75s.75-.34.75-.75z" fill="currentColor"/>
</svg>

<!-- ic:round-mic -->
<symbol id="mic" preserveAspectRatio="xMidYMid meet" viewBox="0 0 24 24">
	<path d="M12 14c1.66 0 3-1.34 3-3V5c0-1.66-1.34-3-3-3S9 3.34 9 5v6c0 1.66 1.34 3 3 3zm5.91-3c-.49 0-.9.36-.98.85C16.52 14.2 14.47 16 12 16s-4.52-1.8-4.93-4.15a.998.998 0 0 0-.98-.85c-.61 0-1.09.54-1 1.14c.49 3 2.89 5.35 5.91 5.78V20c0 .55.45 1 1 1s1-.45 1-1v-2.08a6.993 6.993 0 0 0 5.91-5.78c.1-.6-.39-1.14-1-1.14z" fill="currentColor"/>
</symbol>

<!-- tabler:brand-lastfm (modified) -->
<symbol id="lastfm" preserveAspectRatio="xMidYMid meet" viewBox="0 0 24 24">
	<path d="M9.99525 6.34147C8.87592 5.94678 7.66469 5.89294 6.51476 6.18674C5.36482 6.48054 4.32786 7.10878 3.53503 7.99201C2.7422 8.87524 2.22913 9.97376 2.06072 11.1486C1.8923 12.3235 2.07611 13.5219 2.5889 14.5923C3.10168 15.6627 3.9204 16.5569 4.94149 17.1619C5.96258 17.7669 7.14017 18.0555 8.3253 17.9912C9.51042 17.9268 10.6498 17.5124 11.5994 16.8004C12.0413 16.4691 12.1309 15.8423 11.7996 15.4005C11.4683 14.9586 10.8415 14.869 10.3996 15.2003C9.76656 15.675 9.00695 15.9512 8.21687 15.9941C7.42678 16.037 6.64172 15.8446 5.961 15.4413C5.28027 15.0379 4.73446 14.4418 4.3926 13.7282C4.05074 13.0146 3.9282 12.2157 4.04048 11.4324C4.15275 10.6492 4.4948 9.91682 5.02335 9.32801C5.55191 8.73919 6.24322 8.32036 7.00984 8.12449C7.77646 7.92862 8.58395 7.96452 9.33017 8.22765C10.0764 8.49077 10.7281 8.96965 11.2023 9.60305C11.3579 9.81073 11.5593 10.1869 11.7916 10.7155C12.0167 11.2277 12.245 11.8224 12.4666 12.4272C12.5977 12.7853 12.7194 13.1268 12.8365 13.4554C12.9216 13.6944 13.0043 13.9266 13.0865 14.1533C13.2684 14.6551 13.4493 15.1361 13.6051 15.4476C13.9144 16.0662 14.3941 16.7153 15.1323 17.2074C15.8768 17.7037 16.8245 18.0004 17.9995 18.0004C19.1183 18.0004 20.0729 17.7756 20.79 17.2552C21.5384 16.7121 21.9066 15.9356 21.994 15.105C22.0755 14.3308 21.9527 13.5417 21.5022 12.8154C21.0591 12.101 20.3542 11.5364 19.4283 11.097C19.2904 11.0315 19.1594 10.9701 19.035 10.9117C18.3629 10.5964 17.8814 10.3705 17.5179 10.08C17.1771 9.80762 16.9995 9.52429 16.9995 9.00036C16.9995 8.70443 17.058 8.5258 17.1131 8.4199C17.1675 8.31536 17.2395 8.24119 17.3268 8.18264C17.5255 8.04946 17.8044 8.00036 17.9995 8.00036C18.3191 8.00036 18.432 8.00914 18.5537 8.05672C18.6666 8.10086 18.8836 8.22165 19.23 8.63903C19.5828 9.064 20.2132 9.12257 20.6382 8.76984C21.0632 8.41712 21.1217 7.78667 20.769 7.36169C20.2854 6.77907 19.8085 6.39986 19.2819 6.194C18.7843 5.99948 18.3289 6 18.0346 6.00033L17.9995 6.00036C17.5827 6.00036 16.8615 6.08676 16.2132 6.52133C15.4997 6.99962 14.9995 7.81841 14.9995 9.00036C14.9995 10.2054 15.5139 11.0386 16.2692 11.6423C16.8359 12.0952 17.5757 12.4396 18.2355 12.7467C18.3501 12.8001 18.4623 12.8523 18.5707 12.9038C19.2608 13.2313 19.6185 13.5727 19.8026 13.8696C19.9794 14.1546 20.0485 14.4819 20.005 14.8957C19.9674 15.2531 19.8356 15.4766 19.6153 15.6365C19.3636 15.8191 18.8807 16.0004 17.9995 16.0004C17.1745 16.0004 16.6222 15.797 16.2417 15.5433C15.855 15.2855 15.5846 14.9345 15.394 14.5531C15.2997 14.3647 15.1576 13.9981 14.9668 13.4719C14.894 13.2708 14.8133 13.0445 14.7282 12.8057L14.3445 11.7392L13.6226 9.91091C13.3794 9.35739 13.103 8.80446 12.8028 8.40368C12.0915 7.45376 11.1144 6.7361 9.99525 6.34147Z" fill="currentColor"/>
</symbol>


<!-- mdi:spotify (modified) -->
<symbol id="spotify" preserveAspectRatio="xMidYMid meet" viewBox="0 0 24 24">
	<path d="M17.9 10.9001C14.7 9.00012 9.34998 8.80012 6.29998 9.75012C5.79998 9.90012 5.29998 9.60012 5.14998 9.15012C4.99998 8.65012 5.29998 8.15012 5.74998 8.00012C9.29998 6.95012 15.15 7.15012 18.85 9.35012C19.3 9.60012 19.45 10.2001 19.2 10.6501C18.95 11.0001 18.35 11.1501 17.9 10.9001Z" fill="currentColor"/>
	<path d="M17.8 13.7001C17.55 14.0501 17.1 14.2001 16.75 13.9501C14.05 12.3001 9.94998 11.8001 6.79998 12.8001C6.39998 12.9001 5.94998 12.7001 5.84998 12.3001C5.74998 11.9001 5.94998 11.4501 6.34998 11.3501C9.99998 10.2501 14.5 10.8001 17.6 12.7001C17.9 12.8501 18.05 13.3501 17.8 13.7001Z" fill="currentColor"/>
	<path d="M16.6 16.4501C16.4 16.7501 16.05 16.8501 15.75 16.6501C13.4 15.2001 10.45 14.9001 6.94998 15.7001C6.59998 15.8001 6.29998 15.5501 6.19998 15.2501C6.09998 14.9001 6.34998 14.6001 6.64998 14.5001C10.45 13.6501 13.75 14.0001 16.35 15.6001C16.7 15.7501 16.75 16.1501 16.6 16.4501Z" fill="currentColor"/>
</symbol>


</svg>
