<svg width="512" height="512" viewBox="0 0 512 512" fill="none" xmlns="http://www.w3.org/2000/svg">
<rect width="512" height="512" fill="#00C2FF" fill-opacity="0.5"/>
<g style="mix-blend-mode:overlay">
<mask id="mask0_25_2" style="mask-type:alpha" maskUnits="userSpaceOnUse" x="128" y="128" width="256" height="256">
<path fill-rule="evenodd" clip-rule="evenodd" d="M256 384C326.692 384 384 326.692 384 256C384 185.308 326.692 128 256 128C185.308 128 128 185.308 128 256C128 326.692 185.308 384 256 384ZM256 268.917V181H306V214.333H272.667V297.667C272.667 316.083 257.75 331 239.333 331C220.917 331 206 316.083 206 297.667C206 279.25 220.917 264.333 239.333 264.333C245.417 264.333 251.083 266.083 256 268.917Z" fill="white"/>
</mask>
<g mask="url(#mask0_25_2)">
<path fill-rule="evenodd" clip-rule="evenodd" d="M383.653 246.5C381.319 214.695 367.364 186.118 346.017 165H243V165.006C232.738 165.268 224.5 173.56 224.5 183.75C224.5 186.13 224.949 188.406 225.768 190.5H218.5C208.007 190.5 199.5 198.895 199.5 209.25C199.5 219.605 208.007 228 218.5 228H296.502C296.637 238.24 305.091 246.5 315.5 246.5C315.583 246.5 315.667 246.499 315.75 246.498V246.5H383.653ZM129.327 274.5C134.085 307.364 151.328 336.186 176.093 356H302C312.409 356 320.863 347.74 320.998 337.5H343C353.493 337.5 362 329.105 362 318.75C362 308.395 353.493 300 343 300H291.232C292.051 297.906 292.5 295.63 292.5 293.25C292.5 282.895 283.993 274.5 273.5 274.5H129.327Z" fill="white" fill-opacity="0.5"/>
<path fill-rule="evenodd" clip-rule="evenodd" d="M315.75 246.5H383.653C381.319 214.695 367.364 186.118 346.017 165H243V165.006C232.738 165.268 224.5 173.56 224.5 183.75C224.5 186.13 224.949 188.406 225.768 190.5H218.5C208.007 190.5 199.5 198.895 199.5 209.25C199.5 219.605 208.007 228 218.5 228H296.502C296.637 238.24 305.091 246.5 315.5 246.5C315.583 246.5 315.667 246.499 315.75 246.498V246.5Z" fill="white" fill-opacity="0.5"/>
<path fill-rule="evenodd" clip-rule="evenodd" d="M129.327 274.5H273.5C283.993 274.5 292.5 282.895 292.5 293.25C292.5 295.63 292.051 297.906 291.232 300H343C353.493 300 362 308.395 362 318.75C362 329.105 353.493 337.5 343 337.5H320.998C320.863 347.74 312.409 356 302 356H176.093C151.328 336.186 134.085 307.364 129.327 274.5Z" fill="white" fill-opacity="0.5"/>
<path fill-rule="evenodd" clip-rule="evenodd" d="M256 384C326.692 384 384 326.692 384 256C384 251.582 383.776 247.216 383.339 242.913C383.46 244.104 383.565 245.3 383.653 246.5H315.75V246.498L315.669 246.499C315.613 246.5 315.556 246.5 315.5 246.5C305.091 246.5 296.637 238.24 296.502 228H218.5C208.007 228 199.5 219.605 199.5 209.25C199.5 198.895 208.007 190.5 218.5 190.5H225.768C224.949 188.406 224.5 186.13 224.5 183.75C224.5 173.56 232.738 165.268 243 165.006V165H346.017C322.893 142.125 291.096 128 256 128C185.308 128 128 185.308 128 256C128 262.283 128.453 268.46 129.327 274.5H273.5C283.993 274.5 292.5 282.895 292.5 293.25C292.5 295.63 292.051 297.906 291.232 300H343C353.493 300 362 308.395 362 318.75C362 329.105 353.493 337.5 343 337.5H320.998C320.863 347.74 312.409 356 302 356H176.092C197.992 373.522 225.772 384 256 384Z" fill="white"/>
</g>
</g>
</svg>
