<svg width="24" height="24" viewBox="0 0 24 24" fill="none" xmlns="http://www.w3.org/2000/svg">
<path fill-rule="evenodd" clip-rule="evenodd" d="M21 12C21 16.9706 16.9706 21 12 21C7.02944 21 3 16.9706 3 12C3 7.02944 7.02944 3 12 3C16.9706 3 21 7.02944 21 12ZM19.0312 12C19.0312 15.8833 15.8833 19.0312 12 19.0312C8.11675 19.0312 4.96875 15.8833 4.96875 12C4.96875 8.11675 8.11675 4.96875 12 4.96875C15.8833 4.96875 19.0312 8.11675 19.0312 12Z" fill="white"/>
<path d="M7.21875 14.9531H13.8984L12.9844 13.5469H9.89062L11.9297 10.1719L14.9531 14.9531H16.7812L11.9297 6.86719L7.21875 14.9531Z" fill="white"/>
</svg>
