<svg width="24" height="24" viewBox="0 0 24 24" fill="none" xmlns="http://www.w3.org/2000/svg">
<path fill-rule="evenodd" clip-rule="evenodd" d="M12 2.5C6.75121 2.5 2.5 6.75308 2.5 12C2.5 17.2488 6.75308 21.5 12 21.5C17.2488 21.5 21.5 17.2469 21.5 12C21.5 6.75121 17.2469 2.5 12 2.5ZM2 12C2 6.477 6.475 2 12 2C17.523 2 22 6.475 22 12C22 17.523 17.525 22 12 22C6.477 22 2 17.525 2 12Z" fill="white"/>
<path d="M13.612 8.918C13.1109 9.28856 11.773 9.56199 11.7343 9.56983C11.6572 9.48111 11.7786 9.18282 11.9 8.907C12.0215 8.6305 12.4635 8.1885 13.082 8.034C13.7005 7.8795 14.1975 8.0785 14.264 8.211C14.33 8.3435 14.12 8.5425 13.612 8.918Z" fill="white"/>
<path fill-rule="evenodd" clip-rule="evenodd" d="M20.344 5.328C20.1817 5.35725 19.7273 5.60955 19.6766 5.63791C19.1261 5.72377 18.1348 6.0493 17.3276 6.31437C16.8665 6.46578 16.4655 6.59746 16.241 6.6535C16.1509 6.67602 16.0677 6.69819 15.9883 6.71936C15.5231 6.84343 15.1879 6.9328 14.3405 6.8525C13.2095 6.7455 12.7015 6.7385 12.404 6.747C11.9585 6.7075 11.734 6.6095 11.734 6.6095L11.773 7.048C11.477 7.274 10.8805 7.603 9.656 7.9355C9.31017 7.97397 8.98938 7.9498 8.70452 7.92833C8.33413 7.90041 8.02447 7.87707 7.7995 8.002C7.402 8.223 6.1425 8.775 5.5015 8.9295C5.09823 9.0267 4.76086 9.17753 4.47035 9.30741C4.29908 9.38398 4.1441 9.45327 4.0015 9.5C3.391 9.699 5.2115 12.6165 6.0015 13C6.0015 13 5.728 13.284 5.5015 13.5215C4.952 13.897 4.519 13.922 4.519 13.922L4.5465 14.223C3.9085 14.562 3.2765 14.7205 3.066 14.7505C3.0125 14.758 2.804 14.894 2.5015 15.108C3.809 19.108 7.5665 22.0005 12.0015 22.0005C12.9025 22.0005 13.771 21.8705 14.601 21.647C14.6845 21.1035 14.7975 20.3335 14.8675 19.605C15.0845 19.286 15.3765 19.282 15.3765 19.282C15.3765 19.282 15.0015 18.2195 15.0385 16.94C15.085 16.6365 15.164 16.3505 15.264 16.0785H15.642C15.642 16.0785 15.5945 15.5565 15.808 15.026C16.4853 13.9963 17.4005 13.2962 17.8323 12.9658L17.8785 12.9305C18.2645 12.634 20.044 12.179 20.4195 12.0905C20.795 12.002 21.1485 11.405 21.1705 11.228C21.1925 11.051 21.06 10.72 21.06 10.72L20.5476 10.6063C20.5376 10.5988 20.5262 10.5913 20.5133 10.5838C20.5151 10.488 20.3255 10.2134 20.2535 10.239C20.2118 10.2538 20.1717 10.3474 20.1417 10.4384C19.9489 10.366 19.7757 10.2795 19.7655 10.125C19.75 9.8905 20.25 8.531 20.3905 8.3125C20.531 8.0935 20.953 7.4845 20.953 7.4845L20.9495 7.48622C21.1722 7.21663 21.281 6.90764 21.281 6.61C21.281 6.40959 21.1974 6.16996 21.125 6H21.126C21.126 6 21.126 5.844 21.032 5.625C20.938 5.4065 20.813 5.25 20.813 5.25C20.813 5.25 20.516 5.2965 20.344 5.328ZM13.117 9.6675C12.5935 9.9805 11.219 10.1875 11.219 10.1875C11.219 10.1875 11.1895 9.4685 11.712 8.845C12.9605 7.3555 14.766 8.078 14.766 8.078C14.766 8.078 14.824 8.6475 13.117 9.6675ZM8.5545 12.9215C7.929 13.0125 6.654 12.7845 6.149 12.3975C5.6455 12.0105 4.3515 9.962 4.461 9.8525C4.5705 9.743 5.75 9.422 6 9.5C6.25 9.578 6.7965 10.573 6.5 11L7 11.5C8 10.5 9.493 11.1955 9.75 11.875C10.0673 12.7141 10.0414 12.7176 8.98761 12.861C8.85897 12.8785 8.71501 12.8981 8.5545 12.9215Z" fill="white"/>
</svg>
