<svg width="24" height="24" viewBox="0 0 24 24" fill="none" xmlns="http://www.w3.org/2000/svg">
<path d="M12 20L15.46 14H15.45C15.79 13.4 16 12.73 16 12C16 10.8 15.46 9.73 14.62 9H19.41C19.79 9.93 20 10.94 20 12C20 14.1217 19.1571 16.1566 17.6569 17.6569C16.1566 19.1571 14.1217 20 12 20ZM4 12C4 10.54 4.39 9.18 5.07 8L8.54 14H8.55C9.24 15.19 10.5 16 12 16C12.45 16 12.88 15.91 13.29 15.77L10.89 19.91C7 19.37 4 16.04 4 12ZM15 12C15 12.7956 14.6839 13.5587 14.1213 14.1213C13.5587 14.6839 12.7956 15 12 15C11.2044 15 10.4413 14.6839 9.87867 14.1213C9.31607 13.5587 9 12.7956 9 12C9 11.2044 9.31607 10.4413 9.87867 9.87867C10.4413 9.31607 11.2044 9 12 9C12.7956 9 13.5587 9.31607 14.1213 9.87867C14.6839 10.4413 15 11.2044 15 12ZM12 4C13.4033 3.9994 14.782 4.3689 15.9969 5.07117C17.2118 5.77343 18.2201 6.7837 18.92 8H12C10.06 8 8.45 9.38 8.08 11.21L5.7 7.08C6.4463 6.12083 7.4018 5.34477 8.4936 4.811C9.5854 4.27723 10.7847 3.99983 12 4ZM12 2C10.6868 2 9.38643 2.25866 8.17317 2.7612C6.9599 3.26375 5.85753 4.00033 4.92893 4.92893C3.05357 6.8043 2 9.34783 2 12C2 14.6522 3.05357 17.1957 4.92893 19.0711C5.85753 19.9997 6.9599 20.7362 8.17317 21.2388C9.38643 21.7413 10.6868 22 12 22C14.6522 22 17.1957 20.9464 19.0711 19.0711C20.9464 17.1957 22 14.6522 22 12C22 10.6868 21.7413 9.38643 21.2388 8.17317C20.7362 6.9599 19.9997 5.85753 19.0711 4.92893C18.1425 4.00033 17.0401 3.26375 15.8268 2.7612C14.6136 2.25866 13.3132 2 12 2Z" fill="white"/>
</svg>
