<svg width="24" height="24" viewBox="0 0 24 24" fill="none" xmlns="http://www.w3.org/2000/svg">
<path fill-rule="evenodd" clip-rule="evenodd" d="M3 12C3 7.02944 7.02944 3 12 3C16.9706 3 21 7.02944 21 12C21 16.9706 16.9706 21 12 21C7.02944 21 3 16.9706 3 12ZM4.68521 14.4116L10.7143 12L4.68521 9.58837C4.43525 10.347 4.3 11.1577 4.3 12C4.3 12.8423 4.43525 13.653 4.68521 14.4116ZM11.091 11.091L5.12275 8.53315C5.86485 7.06392 7.06392 5.86485 8.53315 5.12275L11.091 11.091ZM9.58837 4.68521C10.347 4.43525 11.1577 4.3 12 4.3C12.8423 4.3 13.653 4.43525 14.4116 4.68521L12 10.7143L9.58837 4.68521ZM12.909 11.091L15.4668 5.12275C16.9361 5.86485 18.1351 7.06392 18.8773 8.53315L12.909 11.091ZM19.3148 9.58837L13.2857 12L19.3148 14.4116C19.5648 13.653 19.7 12.8423 19.7 12C19.7 11.1577 19.5648 10.347 19.3148 9.58837ZM12.909 12.909L18.8773 15.4668C18.1351 16.9361 16.9361 18.1351 15.4668 18.8773L12.909 12.909ZM14.4116 19.3148L12 13.2857L9.58837 19.3148C10.347 19.5648 11.1577 19.7 12 19.7C12.8423 19.7 13.653 19.5648 14.4116 19.3148ZM11.091 12.909L8.53315 18.8773C7.06392 18.1351 5.86485 16.9361 5.12275 15.4668L11.091 12.909Z" fill="white"/>
</svg>
