<svg width="72" height="72" viewBox="0 0 72 72" xmlns="http://www.w3.org/2000/svg">
	<path d="M65.9186 33.7734C65.9726 34.5086 66 35.2511 66 36C66 52.5685 52.5685 66 36 66C28.9154 66 22.4043 63.5442 17.2717 59.4375H46.7812C49.2208 59.4375 51.2022 57.5016 51.234 55.1016H56.3906C58.85 55.1016 60.8438 53.1341 60.8438 50.707C60.8438 48.28 58.85 46.3125 56.3906 46.3125H44.2574C44.4494 45.8216 44.5547 45.2882 44.5547 44.7305C44.5547 42.3034 42.561 40.3359 40.1016 40.3359H39.9062V29.4375H45.4926C45.5244 31.8375 47.5057 33.7734 49.9453 33.7734C49.9649 33.7734 49.9844 33.7733 50.0039 33.7731V33.7734H65.9186Z" fill="currentColor"/>
	<path d="M57.0977 14.6719C51.6781 9.31052 44.2257 6 36 6C19.4315 6 6 19.4315 6 36C6 37.4725 6.10609 38.9202 6.31104 40.3359H26.4752C27.8956 38.8665 29.8875 37.9531 32.0937 37.9531C33.5195 37.9531 34.8477 38.3633 36 39.0273V29.4375H27.2109C24.7515 29.4375 22.7578 27.47 22.7578 25.043C22.7578 22.6159 24.7515 20.6484 27.2109 20.6484H28.9145C28.7225 20.1576 28.6172 19.6241 28.6172 19.0664C28.6172 16.678 30.5479 14.7347 32.9531 14.6734V14.6719H57.0977Z" fill="currentColor"/>
	<path d="M57.0977 14.6719C62.101 19.6215 65.3717 26.3191 65.9186 33.7734H50.0039V33.7731C49.9844 33.7733 49.9649 33.7734 49.9453 33.7734C47.5057 33.7734 45.5243 31.8375 45.4926 29.4375H39.9062V26.2344H47.7187V18.4219H36V29.4375H27.2109C24.7515 29.4375 22.7578 27.47 22.7578 25.043C22.7578 22.6159 24.7515 20.6484 27.2109 20.6484H28.9145C28.7225 20.1576 28.6172 19.6241 28.6172 19.0664C28.6172 16.678 30.5479 14.7347 32.9531 14.6734V14.6719H57.0977Z" fill="currentColor" fill-opacity="0.75"/>
	<path d="M6.31104 40.3359C7.4261 48.0384 11.4676 54.7936 17.2717 59.4375L46.7812 59.4375C49.2208 59.4375 51.2022 57.5016 51.234 55.1016H56.3906C58.85 55.1016 60.8437 53.1341 60.8437 50.707C60.8437 48.28 58.85 46.3125 56.3906 46.3125H44.2574C44.4494 45.8216 44.5547 45.2882 44.5547 44.7305C44.5547 42.3034 42.5609 40.3359 40.1016 40.3359H39.9062V45.7656C39.9062 50.082 36.4102 53.5781 32.0937 53.5781C27.7773 53.5781 24.2812 50.082 24.2812 45.7656C24.2812 43.6555 25.1168 41.7414 26.4752 40.3359H6.31104Z" fill="currentColor" fill-opacity="0.75"/>
</svg>
