<svg width="24" height="24" viewBox="0 0 24 24" fill="none" xmlns="http://www.w3.org/2000/svg">
<path fill-rule="evenodd" clip-rule="evenodd" d="M2.66652 6.16658C2.66652 5.2952 2.96182 4.99991 3.83319 4.99991H20.1666C21.038 4.99991 21.3333 5.2952 21.3333 6.16658V17.8333C21.3333 18.7047 20.9736 19 20.1666 19H3.83319C2.96182 19 2.66652 18.7047 2.66652 17.8333V6.16658ZM3.8332 14.3333V7.33327C3.83575 6.45441 4.12416 6.16659 4.99987 6.16659H19C19.88 6.16659 20.1666 6.46197 20.1666 7.33327V14.3333C20.1666 15.2048 19.8794 15.5 19 15.5H4.99987C4.12044 15.5 3.8332 15.2093 3.8332 14.3333Z" fill="white"/>
<path d="M8.49989 9.66664C6.72841 9.66635 6.16654 10.7069 6.16654 11.9977V11.9999C6.16654 13.2907 6.85481 14.3333 8.49989 14.3333H15.4999C17.2337 14.3333 17.8333 13.293 17.8333 12.0023V12C17.8333 10.7092 17.208 9.66804 15.4999 9.66781L8.49989 9.66664ZM8.49989 10.8333C9.14422 10.8333 9.66657 11.3557 9.66657 12C9.66657 12.6443 9.14422 13.1667 8.49989 13.1667C7.85556 13.1667 7.33322 12.6443 7.33322 12C7.33322 11.3557 7.85556 10.8333 8.49989 10.8333ZM15.4999 10.8333C16.1443 10.8333 16.6666 11.3557 16.6666 12C16.6666 12.6443 16.1443 13.1667 15.4999 13.1667C14.8556 13.1667 14.3333 12.6443 14.3333 12C14.3333 11.3557 14.8419 10.8333 15.4999 10.8333Z" fill="white"/>
</svg>
