<svg width="24" height="24" viewBox="0 0 24 24" fill="none" xmlns="http://www.w3.org/2000/svg">
<path d="M4.028 7.82015C3.2167 9.36723 2.87317 11.117 3.03933 12.856C3.20548 14.595 3.87414 16.248 4.96373 17.6135C6.05332 18.9789 7.51674 19.9978 9.17549 20.5457C10.8342 21.0937 12.6166 21.1471 14.3052 20.6993C15.9937 20.2516 17.5155 19.3222 18.6848 18.0244C19.8542 16.7265 20.6205 15.1165 20.8904 13.3905C21.1604 11.6646 20.9221 9.89742 20.2049 8.30456C19.4876 6.7117 18.3223 5.36202 16.851 4.42015C15.215 3.40015 13.787 3.40015 12 3.40015H10.353" stroke="white" stroke-linecap="round" stroke-linejoin="round"/>
<path d="M4.91401 9.48503C3.15801 7.91603 4.10901 4.10503 5.02301 3.31503C5.10901 4.21103 5.60801 4.52303 6.13401 5.00003C7.01401 4.72503 7.44701 4.71803 8.00101 5.00003C8.82101 4.09003 9.69501 2.64603 10.629 2.90703C9.54701 4.64803 10.559 6.64003 12 7.08003C11.83 8.05503 10.516 8.99303 9.24001 9.76603C7.94401 10.704 8.51801 11.616 9.24001 12C10.189 12.506 12.851 11.005 13.785 12.354C12.087 12.456 12.249 15.461 9.80201 15.081C12.325 16.038 14.147 15.543 15.26 14.741C17.225 13.221 18.139 11.199 18.139 9.18403C18.125 7.78603 18.333 6.48903 16.879 4.43403" stroke="white" stroke-linecap="round" stroke-linejoin="round"/>
</svg>
