<svg width="24" height="24" viewBox="0 0 24 24" fill="none" xmlns="http://www.w3.org/2000/svg">
<mask id="path-1-outside-1_29_13" maskUnits="userSpaceOnUse" x="5" y="2" width="14" height="20" fill="black">
<rect fill="white" x="5" y="2" width="14" height="20"/>
<path d="M8.95167 3C8.95167 3 7.11272 6.49902 6.54556 8.40732C6.22721 9.47844 5.9615 10.6099 6.0046 11.7364C6.03443 12.516 6.27584 13.2802 6.55374 13.9977C6.80794 14.6539 7.1872 15.2458 7.56065 15.8286L7.57085 15.8445C8.11336 16.691 8.7152 17.493 9.354 18.2531C10.0747 19.1107 11.5277 20.551 11.7848 20.8059L11.8207 20.8415C11.904 20.9248 11.9979 20.9987 11.9996 21L12.0013 20.9987C12.0094 20.9923 12.0991 20.9217 12.1793 20.8415L12.213 20.808C12.464 20.5594 13.9232 19.1132 14.646 18.2531C15.2848 17.493 15.8867 16.691 16.4292 15.8445L16.4394 15.8286L16.4401 15.8274C16.8135 15.2448 17.1922 14.6538 17.4463 13.9977C17.7242 13.2802 17.9656 12.516 17.9954 11.7364C18.0385 10.6099 17.7728 9.47844 17.4545 8.40732C16.8873 6.49902 15.0483 3 15.0483 3L12.9447 6.26562C12.6358 6.20277 12.3175 6.17094 11.9978 6.17091C11.6798 6.17149 11.3632 6.20355 11.0558 6.2663L8.95167 3Z"/>
</mask>
<path d="M6.54556 8.40732L7.50412 8.69221L7.50412 8.69221L6.54556 8.40732ZM8.95167 3L9.79233 2.45844C9.59972 2.15945 9.26279 1.98526 8.90748 2.00098C8.55216 2.01669 8.23193 2.21995 8.06647 2.53478L8.95167 3ZM11.0558 6.2663L10.2152 6.80786C10.4385 7.15456 10.8518 7.32858 11.2559 7.24609L11.0558 6.2663ZM11.9978 6.17091L11.9979 5.17091L11.996 5.17091L11.9978 6.17091ZM12.9447 6.26562L12.7454 7.24555C13.1492 7.32771 13.5622 7.15366 13.7854 6.80716L12.9447 6.26562ZM15.0483 3L15.9335 2.53477C15.768 2.21994 15.4478 2.01669 15.0925 2.00098C14.7372 1.98527 14.4002 2.15946 14.2076 2.45846L15.0483 3ZM17.4545 8.40732L18.4131 8.12247L18.413 8.1224L17.4545 8.40732ZM17.9954 11.7364L16.9961 11.6981L16.9961 11.6981L17.9954 11.7364ZM17.4463 13.9977L18.3788 14.3588L18.3789 14.3588L17.4463 13.9977ZM16.4394 15.8286L17.2813 16.3682L17.2819 16.3672L16.4394 15.8286ZM16.4292 15.8445L15.5872 15.3049L15.5872 15.3049L16.4292 15.8445ZM14.646 18.2531L13.8805 17.6097L13.8805 17.6097L14.646 18.2531ZM12.213 20.808L11.5091 20.0978L11.5087 20.0982L12.213 20.808ZM12.1793 20.8415L11.475 20.1316L11.4723 20.1343L12.1793 20.8415ZM12.0013 20.9987L12.6032 21.7973C12.6089 21.793 12.6146 21.7886 12.6203 21.7842L12.0013 20.9987ZM11.9996 21L11.3899 21.7926C11.7465 22.0669 12.2422 22.0693 12.6015 21.7986L11.9996 21ZM11.8207 20.8415L12.5278 20.1343L12.525 20.1315L11.8207 20.8415ZM9.354 18.2531L10.1195 17.6097L10.1195 17.6097L9.354 18.2531ZM7.57085 15.8445L8.41279 15.3049L8.4126 15.3046L7.57085 15.8445ZM7.56065 15.8286L6.71869 16.3681L6.71891 16.3684L7.56065 15.8286ZM6.55374 13.9977L5.62124 14.3588L5.62125 14.3588L6.55374 13.9977ZM6.0046 11.7364L7.00387 11.6981L7.00387 11.6981L6.0046 11.7364ZM16.4401 15.8274L15.5981 15.2879L15.5976 15.2888L16.4401 15.8274ZM11.7848 20.8059L12.4891 20.096L12.4889 20.0957L11.7848 20.8059ZM7.50412 8.69221C7.76294 7.82139 8.3326 6.53322 8.86401 5.41831C9.12502 4.87068 9.36891 4.38109 9.54755 4.02841C9.6368 3.85221 9.70958 3.71055 9.75985 3.61333C9.78498 3.56472 9.80446 3.52725 9.81755 3.50215C9.8241 3.4896 9.82904 3.48014 9.83229 3.47393C9.83392 3.47083 9.83512 3.46854 9.83588 3.46708C9.83627 3.46635 9.83654 3.46583 9.8367 3.46552C9.83679 3.46537 9.83684 3.46526 9.83687 3.46521C9.83688 3.46519 9.83688 3.46519 9.83688 3.46518C9.83688 3.46519 9.83686 3.46522 8.95167 3C8.06647 2.53478 8.06644 2.53483 8.06641 2.5349C8.06639 2.53494 8.06634 2.53503 8.0663 2.53511C8.06621 2.53527 8.0661 2.53549 8.06596 2.53576C8.06568 2.53629 8.06528 2.53704 8.06478 2.538C8.06377 2.53992 8.06233 2.54268 8.06046 2.54626C8.05671 2.55341 8.05126 2.56383 8.0442 2.57737C8.03007 2.60446 8.0095 2.64402 7.98324 2.69482C7.93072 2.79641 7.8554 2.94302 7.76339 3.12467C7.57951 3.48768 7.32821 3.99212 7.05859 4.55779C6.52874 5.66946 5.89535 7.08495 5.587 8.12242L7.50412 8.69221ZM8.11101 3.54156L10.2152 6.80786L11.8965 5.72474L9.79233 2.45844L8.11101 3.54156ZM11.2559 7.24609C11.4971 7.19684 11.7473 7.17137 11.9997 7.17091L11.996 5.17091C11.6123 5.17161 11.2293 5.21026 10.8558 5.28651L11.2559 7.24609ZM11.9977 7.17091C12.2514 7.17093 12.5029 7.19623 12.7454 7.24555L13.1441 5.28569C12.7686 5.20932 12.3836 5.17095 11.9979 5.17091L11.9977 7.17091ZM13.7854 6.80716L15.889 3.54154L14.2076 2.45846L12.104 5.72408L13.7854 6.80716ZM15.0483 3C14.1631 3.46523 14.1631 3.4652 14.1631 3.46518C14.1631 3.46519 14.1631 3.46519 14.1631 3.46522C14.1631 3.46527 14.1632 3.46537 14.1633 3.46553C14.1634 3.46584 14.1637 3.46636 14.1641 3.46709C14.1649 3.46855 14.1661 3.47084 14.1677 3.47394C14.1709 3.48015 14.1759 3.4896 14.1824 3.50215C14.1955 3.52726 14.215 3.56473 14.2401 3.61333C14.2904 3.71056 14.3632 3.85222 14.4524 4.02841C14.6311 4.3811 14.875 4.87068 15.136 5.41831C15.6674 6.53323 16.2371 7.8214 16.4959 8.69223L18.413 8.1224C18.1047 7.08494 17.4713 5.66945 16.9414 4.55778C16.6718 3.99212 16.4205 3.48768 16.2366 3.12466C16.1446 2.94301 16.0693 2.7964 16.0167 2.69482C15.9905 2.64402 15.9699 2.60445 15.9558 2.57737C15.9487 2.56383 15.9433 2.5534 15.9395 2.54625C15.9377 2.54268 15.9362 2.53992 15.9352 2.538C15.9347 2.53704 15.9343 2.53629 15.934 2.53575C15.9339 2.53548 15.9338 2.53527 15.9337 2.5351C15.9336 2.53502 15.9336 2.53494 15.9336 2.5349C15.9335 2.53483 15.9335 2.53477 15.0483 3ZM16.4959 8.69217C16.8071 9.7392 17.0327 10.7415 16.9961 11.6981L18.9947 11.7746C19.0442 10.4784 18.7385 9.21768 18.4131 8.12247L16.4959 8.69217ZM16.9961 11.6981C16.9728 12.3082 16.7808 12.947 16.5138 13.6366L18.3789 14.3588C18.6675 13.6133 18.9584 12.7239 18.9947 11.7746L16.9961 11.6981ZM15.5974 15.289L15.5872 15.3049L17.2711 16.3841L17.2813 16.3682L15.5974 15.289ZM15.5872 15.3049C15.0711 16.1103 14.4956 16.8778 13.8805 17.6097L15.4116 18.8965C16.074 18.1082 16.7023 17.2716 17.2711 16.384L15.5872 15.3049ZM13.8805 17.6097C13.1935 18.4271 11.772 19.8372 11.5091 20.0978L12.917 21.5183C13.1559 21.2815 14.6528 19.7993 15.4116 18.8965L13.8805 17.6097ZM11.5087 20.0982L11.475 20.1316L12.8837 21.5513L12.9174 21.5179L11.5087 20.0982ZM11.4723 20.1343C11.4577 20.1489 11.4369 20.1678 11.415 20.1864C11.405 20.1949 11.3965 20.2019 11.3907 20.2066C11.3878 20.2089 11.3857 20.2107 11.3844 20.2117C11.3833 20.2126 11.3827 20.213 11.3824 20.2133L12.6203 21.7842C12.6332 21.774 12.762 21.673 12.8864 21.5486L11.4723 20.1343ZM11.3995 20.2001L11.3978 20.2014L12.6015 21.7986L12.6032 21.7973L11.3995 20.2001ZM12.6093 20.2074C12.6114 20.2089 12.613 20.2102 12.6135 20.2106C12.6142 20.2111 12.6148 20.2116 12.6152 20.2119C12.6159 20.2125 12.6165 20.2129 12.6168 20.2132C12.6175 20.2137 12.618 20.2141 12.6182 20.2143C12.6187 20.2147 12.6188 20.2147 12.6185 20.2145C12.6179 20.2141 12.6162 20.2127 12.6136 20.2105C12.6082 20.2062 12.5996 20.1991 12.5892 20.1902C12.5664 20.1708 12.5438 20.1504 12.5278 20.1343L11.1136 21.5486C11.2401 21.6751 11.3717 21.7786 11.3899 21.7926L12.6093 20.2074ZM10.1195 17.6097C9.50443 16.8778 8.92898 16.1103 8.41279 15.3049L6.72891 16.384C7.29774 17.2716 7.92597 18.1082 8.58847 18.8965L10.1195 17.6097ZM8.4126 15.3046L8.4024 15.2887L6.71891 16.3684L6.72911 16.3843L8.4126 15.3046ZM8.40262 15.289C8.02013 14.6922 7.69813 14.1835 7.48623 13.6365L5.62125 14.3588C5.91776 15.1243 6.35428 15.7994 6.71869 16.3681L8.40262 15.289ZM7.48623 13.6365C7.21917 12.947 7.02721 12.3082 7.00387 11.6981L5.00533 11.7746C5.04165 12.7239 5.3325 13.6133 5.62124 14.3588L7.48623 13.6365ZM7.00387 11.6981C6.96727 10.7415 7.19294 9.73922 7.50412 8.69221L5.587 8.12242C5.26149 9.21766 4.95574 10.4784 5.00533 11.7746L7.00387 11.6981ZM16.5138 13.6365C16.302 14.1834 15.9805 14.6912 15.5981 15.2879L17.2821 16.367C17.6464 15.7984 18.0824 15.1242 18.3788 14.3588L16.5138 13.6365ZM15.5976 15.2888L15.5968 15.2899L17.2819 16.3672L17.2826 16.3661L15.5976 15.2888ZM12.4889 20.0957C12.2198 19.829 10.8044 18.4246 10.1195 17.6097L8.58845 18.8965C9.34502 19.7967 10.8357 21.2731 11.0808 21.5161L12.4889 20.0957ZM12.525 20.1315L12.4891 20.096L11.0806 21.5159L11.1165 21.5514L12.525 20.1315Z" fill="white" mask="url(#path-1-outside-1_29_13)"/>
<path d="M9.63229 10.8278C9.89238 11.1154 10.1286 11.4372 10.3275 11.7749C10.5264 12.1126 10.684 12.4594 10.7914 12.7957C10.8989 13.1319 10.9539 13.451 10.9535 13.7347C10.953 14.0184 10.8971 14.2612 10.7889 14.4491C10.6808 14.6371 10.5224 14.7665 10.3229 14.83C10.1234 14.8936 9.88666 14.8901 9.62624 14.8195C9.36582 14.749 9.0868 14.613 8.80509 14.4192C8.52339 14.2254 8.24454 13.9776 7.98445 13.69C7.45917 13.1091 7.0422 12.4013 6.82529 11.7221C6.60838 11.043 6.60928 10.4482 6.8278 10.0687C7.04631 9.68914 7.46455 9.5559 7.99049 9.69826C8.51643 9.84063 9.107 10.2469 9.63229 10.8278Z" fill="white"/>
<path d="M11.9453 15.803C11.8178 15.8002 11.6831 15.948 11.6399 16.003C11.5966 16.0579 10.2644 17.7934 10.2316 17.8437C10.2278 17.8496 10.2225 17.8564 10.2164 17.8642L10.2155 17.8654C10.169 17.9247 10.0808 18.0373 10.2756 18.1791C10.4749 18.3242 10.6406 18.1901 10.6921 18.1405C10.7435 18.0909 11.9999 16.5303 11.9999 16.5303C11.9999 16.5303 13.2565 18.0909 13.308 18.1405C13.3594 18.1901 13.5251 18.3242 13.7244 18.1791C13.9192 18.0373 13.831 17.9247 13.7844 17.8654C13.778 17.8571 13.7724 17.8499 13.7684 17.8437C13.7356 17.7934 12.4034 16.0579 12.36 16.003C12.3168 15.948 12.1822 15.8002 12.0546 15.803C12.036 15.8033 12.0206 15.8032 12.0056 15.8031L11.9986 15.8031H11.9903H11.9856L11.9805 15.8031C11.97 15.8031 11.9591 15.8032 11.9453 15.803Z" fill="white"/>
<path d="M13.2085 12.7957C13.4255 12.1166 13.8424 11.4087 14.3677 10.8278C14.893 10.2469 15.4836 9.84063 16.0095 9.69826C16.5354 9.5559 16.9537 9.68915 17.1722 10.0687C17.3907 10.4482 17.3916 11.043 17.1747 11.7221C16.9578 12.4013 16.5408 13.1091 16.0155 13.69C15.4902 14.2709 14.8997 14.6771 14.3737 14.8196C13.8478 14.9619 13.4296 14.8287 13.211 14.4491C12.9925 14.0695 12.9916 13.4748 13.2085 12.7957Z" fill="white"/>
</svg>
