<svg width="24" height="24" viewBox="0 0 24 24" fill="none" xmlns="http://www.w3.org/2000/svg">
<path fill-rule="evenodd" clip-rule="evenodd" d="M11.9999 2C9.74345 2.00002 7.6735 2.74877 6.004 4H5C4.446 4 4 4.446 4 5V6.0039C2.74875 7.6734 2 9.7434 2 11.9999C2 14.2564 2.74875 16.3264 4 17.9959V18.9999C4 19.5539 4.446 19.9999 5 19.9999H6.0039C7.6736 21.2512 9.7437 21.9999 11.9999 21.9999C14.2562 21.9999 16.3263 21.2512 17.9959 19.9999H18.9999C19.5539 19.9999 19.9999 19.5539 19.9999 18.9999V17.996C21.2509 16.3265 21.9999 14.2565 21.9999 12C21.9999 9.7435 21.2509 7.6735 19.9999 6.004V5C19.9999 4.446 19.5539 4 18.9999 4H17.9959C16.3264 2.74875 14.2564 2 11.9999 2ZM5.5 5C5.3674 5 5.2402 5.0527 5.14645 5.14645C5.0527 5.2402 5 5.3674 5 5.5C5 5.6326 5.0527 5.7598 5.14645 5.85355C5.2402 5.9473 5.3674 6 5.5 6C5.6326 6 5.7598 5.9473 5.85355 5.85355C5.9473 5.7598 6 5.6326 6 5.5C6 5.3674 5.9473 5.2402 5.85355 5.14645C5.7598 5.0527 5.6326 5 5.5 5ZM18.5 5C18.3674 5 18.2402 5.0527 18.1465 5.14645C18.0527 5.2402 18 5.3674 18 5.5C18 5.6326 18.0527 5.7598 18.1465 5.85355C18.2402 5.9473 18.3674 6 18.5 6C18.6326 6 18.7598 5.9473 18.8535 5.85355C18.9473 5.7598 19 5.6326 19 5.5C19 5.3674 18.9473 5.2402 18.8535 5.14645C18.7598 5.0527 18.6326 5 18.5 5ZM5.5 18C5.3674 18 5.2402 18.0527 5.14645 18.1465C5.0527 18.2402 5 18.3674 5 18.5C5 18.6326 5.0527 18.7598 5.14645 18.8535C5.2402 18.9473 5.3674 19 5.5 19C5.6326 19 5.7598 18.9473 5.85355 18.8535C5.9473 18.7598 6 18.6326 6 18.5C6 18.3674 5.9473 18.2402 5.85355 18.1465C5.7598 18.0527 5.6326 18 5.5 18ZM18.5 18C18.3674 18 18.2402 18.0527 18.1465 18.1465C18.0527 18.2402 18 18.3674 18 18.5C18 18.6326 18.0527 18.7598 18.1465 18.8535C18.2402 18.9473 18.3674 19 18.5 19C18.6326 19 18.7598 18.9473 18.8535 18.8535C18.9473 18.7598 19 18.6326 19 18.5C19 18.3674 18.9473 18.2402 18.8535 18.1465C18.7598 18.0527 18.6326 18 18.5 18ZM12 4.5C7.85785 4.5 4.5 7.85785 4.5 12C4.5 16.1421 7.85785 19.5 12 19.5C16.1421 19.5 19.5 16.1421 19.5 12C19.5 7.85785 16.1421 4.5 12 4.5Z" fill="white"/>
<path fill-rule="evenodd" clip-rule="evenodd" d="M12 5.5C8.41015 5.5 5.5 8.41015 5.5 12C5.5 15.5898 8.41015 18.5 12 18.5C15.5898 18.5 18.5 15.5898 18.5 12C18.5 8.41015 15.5898 5.5 12 5.5ZM12 9C10.3432 9 9 10.3432 9 12C9 13.6568 10.3432 15 12 15C13.6568 15 15 13.6568 15 12C15 10.3432 13.6568 9 12 9Z" fill="white"/>
</svg>
