<svg width="24" height="24" viewBox="0 0 24 24" fill="none" xmlns="http://www.w3.org/2000/svg">
<path d="M12 3C7.03738 3 3 7.03738 3 12C3 16.9626 7.03738 21 12 21C16.9626 21 21 16.9626 21 12C21 9.89633 20.2627 7.85955 18.921 6.24673L16.0012 8.35515L16.7613 9.42885L18.6151 8.09005C19.3103 9.26645 19.684 10.6162 19.684 12C19.684 16.2372 16.2372 19.685 12 19.685C7.76282 19.685 4.31503 16.2372 4.31503 12C4.31503 7.76282 7.76282 4.31598 12 4.31598C13.4985 4.31598 14.968 4.75711 16.0211 5.50085L17.2098 4.65995C15.64 3.52373 13.7549 3 12 3ZM12 8.69247C10.1763 8.69247 8.69246 10.1762 8.69246 12C8.69246 13.8238 10.1762 15.3075 12 15.3075C13.8238 15.3075 15.3075 13.8238 15.3075 12C15.3075 10.1763 13.8237 8.69247 12 8.69247ZM12 10.8579C12.6301 10.8579 13.1421 11.3699 13.1421 12C13.1421 12.63 12.6301 13.1431 12 13.1431C11.3699 13.1431 10.8569 12.63 10.8569 12C10.8569 11.3699 11.3699 10.8579 12 10.8579Z" fill="white"/>
</svg>
