<svg width="24" height="24" viewBox="0 0 24 24" fill="none" xmlns="http://www.w3.org/2000/svg">
<path d="M12 2C9.34784 2 6.8043 3.05357 4.92893 4.92893C3.05357 6.8043 2 9.34784 2 12C2 14.6522 3.05357 17.1957 4.92893 19.0711C6.8043 20.9464 9.34784 22 12 22C14.6522 22 17.1957 20.9464 19.0711 19.0711C20.9464 17.1957 22 14.6522 22 12C22 9.34784 20.9464 6.8043 19.0711 4.92893C17.1957 3.05357 14.6522 2 12 2ZM12.0255 4.01447C14.1414 4.01447 16.0194 4.77258 17.5414 6.24103C18.2746 6.94843 18.7663 7.6194 19.1873 8.48712C19.7568 9.66087 19.9874 10.6818 19.9874 12.029C19.9874 13.8025 19.4753 15.3491 18.4116 16.7879C18.0955 17.2155 17.478 17.865 17.0682 18.2009C15.9442 19.1222 14.5115 19.7456 13.0899 19.932C12.5987 19.9964 11.4383 20.0044 10.9873 19.9465V19.9466C9.58646 19.7669 8.24665 19.2083 7.07736 18.317C6.69599 18.0263 5.98043 17.3062 5.66806 16.8987C4.79333 15.7575 4.24929 14.4623 4.06985 13.0934C3.99303 12.5074 3.99352 11.4301 4.07077 10.8945C4.45701 8.21703 6.14194 5.92053 8.56158 4.77374C9.68703 4.24034 10.7173 4.01447 12.0255 4.01447ZM11.9992 5.22403C10.7697 5.22285 9.6915 5.50454 8.62445 6.10614C7.65307 6.65381 6.6488 7.65924 6.09882 8.63467C5.69376 9.35308 5.39739 10.2056 5.28171 10.9847C5.20586 11.4955 5.20428 12.5098 5.27866 12.9988C5.42749 13.9776 5.79877 14.945 6.33701 15.7564C6.63093 16.1995 6.6217 16.1947 6.88098 16.0463C7.34479 15.781 7.46587 15.6525 7.71854 15.1575C8.014 14.5787 8.32987 14.0728 8.6153 13.7215C8.94477 13.3159 8.99002 13.2438 9.1553 12.8609C9.23847 12.6682 9.38768 12.3852 9.48688 12.2321L9.66724 11.9536L9.43393 11.7243C9.12399 11.4196 8.86613 11.0741 8.81763 10.8985C8.76809 10.7191 8.82664 10.619 9.05948 10.4845C9.29492 10.3485 9.46325 10.3095 10.0925 10.2448C10.3989 10.2133 10.7314 10.1557 10.8362 10.1158C10.9405 10.0762 11.2519 9.90669 11.5284 9.73911C12.3265 9.25526 12.394 9.23023 12.8725 9.2406C13.2766 9.24937 13.2774 9.24918 13.517 9.10434C14.0192 8.80079 14.7404 8.25311 15.6894 7.45456C15.8714 7.30143 16.0467 7.18116 16.079 7.18738C16.2132 7.21324 16.4598 7.81823 16.4972 8.21368C16.5199 8.45352 16.4735 8.69073 16.3312 9.06192C16.2924 9.1632 16.2746 9.25988 16.2915 9.27676C16.3322 9.31729 16.4719 9.14287 16.4719 9.05154C16.4719 8.9351 16.5489 8.92175 16.6538 9.02011C16.73 9.09162 16.7958 9.11212 16.9492 9.11212C17.1166 9.11212 17.158 9.12762 17.2234 9.21481C17.3343 9.36278 17.3603 9.76616 17.2754 10.0217C17.1929 10.2703 16.9433 10.5569 16.7168 10.6633C16.5141 10.7586 16.1039 11.1592 15.9119 11.4493C15.8384 11.5603 15.7006 11.7918 15.6057 11.9637C15.5107 12.1356 15.3515 12.3953 15.2518 12.5408C15.0557 12.8271 14.8877 13.2265 14.7255 13.7921C14.6303 14.1244 14.6223 14.2109 14.6184 14.952C14.6136 15.8472 14.5673 16.0669 14.3253 16.3425C14.0501 16.6559 13.7756 17.344 13.7525 17.7779C13.7379 18.0518 13.6957 18.3187 13.6357 18.5164C13.6093 18.6035 13.6587 18.6024 13.9524 18.5099C14.8082 18.2401 15.5056 17.8776 16.1789 17.3525C16.5369 17.0733 17.1557 16.4485 17.4152 16.1043C18.1189 15.1708 18.5977 14.0013 18.7386 12.8722C18.8064 12.3283 18.7671 11.1778 18.6635 10.6784C18.3891 9.35547 17.7977 8.23806 16.8663 7.28183C16.2857 6.68567 15.757 6.29272 15.0769 5.95172C14.0449 5.43429 13.1607 5.22521 11.9992 5.22403ZM13.2627 9.65228L12.6822 9.73361L12.3214 10.1956L12.9019 10.1142L13.2627 9.65228Z" fill="white"/>
</svg>
