<svg width="24" height="24" viewBox="0 0 24 24" fill="none" xmlns="http://www.w3.org/2000/svg">
<path fill-rule="evenodd" clip-rule="evenodd" d="M22 12C22 17.5229 17.5228 22 12 22C6.47715 22 2 17.5229 2 12C2 6.47717 6.47715 2.00002 12 2.00002C17.5228 2.00002 22 6.47717 22 12ZM12.0068 6.5C12.4319 5.33668 13.0566 4.09351 13.7939 3.17871C15.4907 3.51993 17.007 4.34102 18.21 5.48828C16.8344 5.67981 15.4259 6.29053 14.3057 7.01367C15.3308 7.48829 16.1849 8.26707 16.752 9.24414C17.87 9.04542 19.2447 8.92977 20.5312 9.13965C20.8313 10.0386 21 10.9982 21 12C21 12.7288 20.9046 13.4333 20.7422 14.1113C19.8896 13.0172 18.6581 12.1045 17.4727 11.4961C17.4895 11.6636 17.4986 11.8317 17.5 12C17.4984 12.9613 17.2449 13.9055 16.7646 14.7383C17.5603 15.6883 18.325 16.8515 18.749 17.9482C17.6394 19.207 16.1872 20.1523 14.5303 20.6348C15.056 19.3481 15.2343 17.8208 15.1699 16.4863C14.2444 17.1427 13.1385 17.4968 12.0039 17.5C11.5771 18.6652 10.9499 19.909 10.2109 20.8213C8.50645 20.4795 6.98336 19.6546 5.77734 18.5C7.15344 18.3139 8.56485 17.7068 9.68945 16.9844C8.66154 16.5072 7.80614 15.7241 7.24023 14.7422C6.01727 14.9557 4.62663 15.0351 3.46582 14.8516C3.16766 13.9551 3 12.9985 3 12C3 11.262 3.09827 10.549 3.26465 9.86328C4.11334 10.9568 5.34048 11.8701 6.52441 12.4805C6.50927 12.3207 6.50113 12.1604 6.5 12C6.5019 11.0313 6.75961 10.0803 7.24707 9.24316C6.45251 8.29355 5.68912 7.13076 5.26562 6.03516C6.37517 4.78269 7.82463 3.84199 9.47754 3.3623C8.95509 4.64781 8.77981 6.17167 8.84473 7.50293C9.76851 6.85248 10.8702 6.5023 12 6.5H12.0068Z" fill="white"/>
<path d="M15 12L10 15V9L15 12Z" fill="white"/>
</svg>
