<svg width="24" height="24" viewBox="0 0 24 24" fill="none" xmlns="http://www.w3.org/2000/svg">
<path d="M20.978 11.3721C20.8296 9.25371 19.9369 7.25603 18.4578 5.73229C16.9787 4.20855 15.0084 3.25691 12.8954 3.04564C10.7823 2.83437 8.66267 3.37709 6.91115 4.57781C5.15963 5.77854 3.88911 7.55994 3.32424 9.60701C2.75937 11.6541 2.93655 13.8349 3.82444 15.764C4.71233 17.693 6.25373 19.246 8.1761 20.1482C10.0985 21.0505 12.278 21.244 14.3292 20.6944C16.3804 20.1448 18.1712 18.8876 19.385 17.1451" stroke="white" stroke-linecap="round" stroke-linejoin="round"/>
<path d="M20.978 11.372C21.188 14.365 15.944 13.785 14.065 12.858C15.457 11.258 14.467 8.81998 11.791 9.00698C10.046 9.12898 8.864 10.164 9.007 12.209C9.287 16.199 13.451 18.414 19.367 16.999" stroke="white" stroke-linecap="round" stroke-linejoin="round"/>
<path d="M3.022 12.6281C2.739 8.58511 11.739 5.40011 14.27 9.94011" stroke="white" stroke-linecap="round" stroke-linejoin="round"/>
<path d="M12.628 20.978C9.635 21.188 7.466 16.253 9.061 11.23" stroke="white" stroke-linecap="round" stroke-linejoin="round"/>
</svg>
