<svg width="24" height="24" viewBox="0 0 24 24" fill="none" xmlns="http://www.w3.org/2000/svg">
<path d="M13.8647 0.791016C13.4262 0.801822 12.9793 0.851885 12.5288 0.94336C10.2691 1.40242 8.47784 2.79496 7.7915 4.5791C4.53001 6.04826 2.25 9.32255 2.25 13.125C2.25 18.2936 6.45638 22.5 11.625 22.5C14.4792 22.5 17.0363 21.213 18.7573 19.1938L22.5 20.5986L19.7256 17.8228C20.5309 16.4396 21 14.8373 21 13.125C21 12.1022 20.8275 11.1184 20.5239 10.1953C21.1031 9.84687 21.6146 9.42847 22.0312 8.9502C22.9435 7.90304 23.4226 6.54914 23.1475 5.19434C22.8723 3.83953 21.9027 2.78072 20.6543 2.17236C19.6425 1.67931 18.4356 1.46627 17.1724 1.57178C16.5657 1.23235 15.8828 0.991254 15.1479 0.874512C14.7334 0.808662 14.3033 0.78021 13.8647 0.791016ZM13.8999 2.29395C14.0926 2.28974 14.2813 2.29728 14.4668 2.31152C13.6888 2.69328 13.0147 3.19793 12.4834 3.79395C12.2 3.76819 11.9149 3.75 11.625 3.75C11.068 3.75 10.5252 3.80723 9.99463 3.90088C10.6694 3.21431 11.6503 2.65323 12.8276 2.41406C13.1916 2.34016 13.5506 2.30156 13.8999 2.29395ZM17.5225 3.04688C18.4488 3.00586 19.3086 3.18477 19.9966 3.52002C20.9139 3.96702 21.5069 4.65678 21.6768 5.49316C21.8466 6.32955 21.5692 7.19495 20.8989 7.96436C20.2287 8.73376 19.1678 9.36893 17.8901 9.62842C16.6124 9.8879 15.3885 9.71653 14.4712 9.26953C13.5539 8.82254 12.9609 8.13424 12.791 7.29785C12.6212 6.46146 12.8986 5.5946 13.5688 4.8252C14.2391 4.05579 15.2999 3.42355 16.5776 3.16406C16.8971 3.09919 17.2137 3.06055 17.5225 3.04688ZM11.5649 5.25293C11.2645 5.99151 11.1571 6.79325 11.3203 7.59668C11.5955 8.95149 12.5651 10.0103 13.8135 10.6187C14.5405 10.9729 15.3697 11.1811 16.2466 11.2339L16.2451 11.2354C16.4101 12.0754 16.5 12.96 16.5 13.875C16.5 15.705 16.1394 17.4155 15.5244 18.8555C17.0469 17.4155 18 15.3825 18 13.125C18 12.465 17.9174 11.8128 17.7524 11.1753C17.7457 11.1761 17.7361 11.172 17.729 11.1724C17.8821 11.1507 18.0349 11.1289 18.189 11.0977C18.5243 11.0296 18.8464 10.937 19.1587 10.8296C19.3796 11.5553 19.5 12.3246 19.5 13.125C19.5 17.4829 15.9829 21 11.625 21C7.26712 21 3.75 17.4829 3.75 13.125C3.75 8.78738 7.23517 5.28543 11.5649 5.25293ZM8.625 9.75C6.76992 9.75 5.25 11.2699 5.25 13.125C5.25 14.9801 6.76992 16.5 8.625 16.5C10.4801 16.5 12 14.9801 12 13.125C12 11.2699 10.4801 9.75 8.625 9.75ZM8.625 11.25C9.66942 11.25 10.5 12.0806 10.5 13.125C10.5 14.1694 9.66942 15 8.625 15C7.58058 15 6.75 14.1694 6.75 13.125C6.75 12.0806 7.58058 11.25 8.625 11.25Z" fill="white"/>
</svg>
