<svg width="24" height="24" viewBox="0 0 24 24" fill="none" xmlns="http://www.w3.org/2000/svg">
<path d="M13.7024 3.27273C12.3061 3.27273 12.0001 3.27196 12 4.66832V14.2372C11.6445 13.8743 11.2202 13.586 10.7519 13.3892C10.2836 13.1924 9.78072 13.0909 9.27273 13.0909C8.26008 13.0909 7.28891 13.4932 6.57286 14.2092C5.85682 14.9253 5.45454 15.8964 5.45454 16.9091C5.45454 17.9217 5.85682 18.8929 6.57286 19.609C7.28891 20.325 8.26008 20.7273 9.27273 20.7273C10.2654 20.726 11.2185 20.3383 11.9301 19.6462C12.6416 18.9541 13.0557 18.0121 13.0845 17.0199L13.091 17.0241C13.0912 16.986 13.0907 16.9472 13.091 16.9091C13.1065 14.3169 13.091 11.6939 13.091 9.09161C13.091 5.23809 17.8473 10.2109 18.5455 10.9091C18.5455 9.04701 18.5898 3.27272 13.7025 3.27272L13.7024 3.27273Z" fill="white"/>
</svg>
