<svg width="24" height="24" viewBox="0 0 24 24" fill="none" xmlns="http://www.w3.org/2000/svg">
<path fill-rule="evenodd" clip-rule="evenodd" d="M18.6548 12.8617C19.6103 12.7382 20.3429 12.5271 20.7949 12.209C21.2173 11.9117 21.4673 11.43 21.4727 10.917C21.4784 10.3495 21.1867 9.56541 20.9133 8.83044C20.6652 8.16334 20.4321 7.53674 20.4502 7.14941C20.4874 6.14681 20.8609 5.55272 21.2338 4.95951C21.4133 4.67391 21.5927 4.38851 21.7344 4.05783C21.966 3.51736 21.4884 2.99354 20.912 3.10977C15.9857 4.10314 12.5421 11.5374 12.5 13C12.5281 15.3283 13.269 20.9593 16.8896 21C20.0358 20.9147 20.4173 17.7308 20.5 14.9854C20.4954 14.5752 20.2844 14.1898 19.9277 13.9521C19.6279 13.7524 19.1819 13.5425 18.6134 13.3708C17.9308 13.1646 17.0715 13.0134 16.0762 13.0008L15.9424 13C15.9872 13 16.0318 13.0003 16.0762 13.0008C17.0505 13.0008 17.9188 12.9568 18.6548 12.8617ZM15.9424 13.5C15.6662 13.5 15.4424 13.2761 15.4424 13C15.4424 12.7239 15.6662 12.5 15.9424 12.5H16.0762C17.182 12.5 18.1328 12.4435 18.8966 12.3219C19.6728 12.1982 20.2013 12.0152 20.5071 11.8001C20.7966 11.5963 20.9689 11.2656 20.9727 10.9119C20.9747 10.7145 20.9258 10.4502 20.8318 10.1248C20.7393 9.80472 20.6139 9.46022 20.4826 9.10658L20.4442 9.00339C20.3275 8.68968 20.208 8.36848 20.1178 8.07709C20.0218 7.76672 19.9373 7.42562 19.9506 7.12851C19.9823 6.2868 20.2269 5.69112 20.514 5.18243C20.6111 5.01056 20.7182 4.84014 20.8174 4.68225C20.8573 4.61888 20.8958 4.55754 20.9319 4.49892C21.064 4.28472 21.1803 4.08159 21.2749 3.8609C21.3111 3.77623 21.2919 3.71434 21.2515 3.66855C21.2066 3.61771 21.1233 3.57722 21.0108 3.5999C18.7459 4.05662 16.7498 6.02374 15.2871 8.16129C14.5643 9.21743 13.9907 10.2878 13.5967 11.1794C13.3997 11.6252 13.2498 12.0215 13.1488 12.3449C13.047 12.6707 13.0052 12.8908 13.0001 13.0057C13.0149 14.1395 13.2044 16.058 13.8156 17.6817C14.4358 19.3297 15.4044 20.4784 16.8858 20.4999C17.5789 20.4795 18.0876 20.2917 18.4728 20.0078C18.8636 19.7198 19.1606 19.308 19.3849 18.7912C19.8403 17.7419 19.9581 16.353 19.9999 14.9819C19.9943 14.7458 19.8716 14.5156 19.6506 14.3683C19.0738 13.9842 17.7576 13.5 15.9424 13.5Z" fill="white"/>
<path fill-rule="evenodd" clip-rule="evenodd" d="M4.07227 13.9521C4.3721 13.7524 4.81807 13.5425 5.38664 13.3708C6.06923 13.1646 6.92853 13.0125 7.92383 13L8.01275 12.9999L8.05762 13C8.04263 13 8.02768 12.9999 8.01275 12.9999C7.98299 12.9998 7.95335 12.9996 7.92383 13C6.94949 13 6.08121 12.9568 5.34524 12.8617C4.38967 12.7382 3.65714 12.5271 3.20508 12.209C2.78273 11.9117 2.53275 11.43 2.52735 10.917C2.52162 10.3495 2.81328 9.56541 3.08665 8.83044C3.33479 8.16334 3.56785 7.53674 3.54981 7.14941C3.51263 6.14681 3.13915 5.55272 2.76622 4.95951C2.58668 4.67391 2.40726 4.38851 2.26556 4.05783C2.03397 3.51736 2.51164 2.99354 3.08803 3.10977C8.01429 4.10314 11.4579 11.5374 11.5 13C11.4719 15.3283 10.731 20.9593 7.11035 21C3.96422 20.9147 3.58275 17.7308 3.5 14.9854C3.50457 14.5752 3.71558 14.1898 4.07227 13.9521ZM8.55762 13C8.55762 12.7239 8.33376 12.5 8.05762 12.5H7.92383C6.81802 12.5 5.8672 12.4435 5.10341 12.3219C4.32711 12.1982 3.79854 12.0152 3.4928 11.8001C3.20328 11.5962 3.03105 11.2654 3.02732 10.9117C3.02536 10.7143 3.07427 10.45 3.16819 10.1248C3.26066 9.80472 3.38612 9.46022 3.51743 9.10658L3.55579 9.00342C3.6725 8.6897 3.792 8.36849 3.88217 8.07709C3.91671 7.96547 3.94976 7.84986 3.97729 7.73376C4.0263 7.52713 4.05787 7.31892 4.04938 7.12873C4.02725 6.53891 3.90052 6.0699 3.72786 5.66698C3.65409 5.49482 3.57193 5.33473 3.48596 5.18243C3.38895 5.01056 3.28183 4.84014 3.18258 4.68225C3.14275 4.61888 3.10419 4.55754 3.06806 4.49892C2.93602 4.28472 2.81971 4.08159 2.72515 3.8609C2.68887 3.77623 2.70809 3.71434 2.74854 3.66855C2.79345 3.61771 2.87674 3.57722 2.9892 3.5999C5.25409 4.05662 7.25016 6.02374 8.71295 8.16129C9.43569 9.21743 10.0093 10.2878 10.4033 11.1794C10.6003 11.6252 10.7502 12.0215 10.8513 12.3449C10.953 12.6707 10.9949 12.8908 10.9999 13.0057C10.9851 14.1395 10.7956 16.058 10.1844 17.6817C9.56417 19.3297 8.59558 20.4784 7.11425 20.4999C6.4211 20.4795 5.91238 20.2917 5.52724 20.0078C5.13643 19.7198 4.83936 19.308 4.61508 18.7912C4.15972 17.7419 4.04187 16.353 4.00013 14.9819C4.00573 14.7458 4.12843 14.5156 4.34943 14.3683C4.92618 13.9842 6.24237 13.5 8.05762 13.5C8.33376 13.5 8.55762 13.2761 8.55762 13Z" fill="white"/>
<path d="M4.5 4.5C4.36739 4.5 4.24021 4.55268 4.14645 4.64645C4.05268 4.74021 4 4.86739 4 5C4 5.13261 4.05268 5.25979 4.14645 5.35355C4.24021 5.44732 4.36739 5.5 4.5 5.5C4.63261 5.5 4.75979 5.44732 4.85355 5.35355C4.94732 5.25979 5 5.13261 5 5C5 4.86739 4.94732 4.74021 4.85355 4.64645C4.75979 4.55268 4.63261 4.5 4.5 4.5ZM19.5 4.5C19.3674 4.5 19.2402 4.55268 19.1464 4.64645C19.0527 4.74021 19 4.86739 19 5C19 5.13261 19.0527 5.25979 19.1464 5.35355C19.2402 5.44732 19.3674 5.5 19.5 5.5C19.6326 5.5 19.7598 5.44732 19.8536 5.35355C19.9473 5.25979 20 5.13261 20 5C20 4.86739 19.9473 4.74021 19.8536 4.64645C19.7598 4.55268 19.6326 4.5 19.5 4.5ZM6.25 6.8125C6.05109 6.8125 5.86032 6.89152 5.71967 7.03217C5.57902 7.17282 5.5 7.36359 5.5 7.5625C5.5 7.76141 5.57902 7.95218 5.71967 8.09283C5.86032 8.23348 6.05109 8.3125 6.25 8.3125C6.44891 8.3125 6.63968 8.23348 6.78033 8.09283C6.92098 7.95218 7 7.76141 7 7.5625C7 7.36359 6.92098 7.17282 6.78033 7.03217C6.63968 6.89152 6.44891 6.8125 6.25 6.8125V6.8125ZM17.75 6.8125C17.5511 6.8125 17.3603 6.89152 17.2197 7.03217C17.079 7.17282 17 7.36359 17 7.5625C17 7.76141 17.079 7.95218 17.2197 8.09283C17.3603 8.23348 17.5511 8.3125 17.75 8.3125C17.9489 8.3125 18.1397 8.23348 18.2803 8.09283C18.421 7.95218 18.5 7.76141 18.5 7.5625C18.5 7.36359 18.421 7.17282 18.2803 7.03217C18.1397 6.89152 17.9489 6.8125 17.75 6.8125ZM5 9.5C4.73478 9.5 4.48043 9.60536 4.29289 9.79289C4.10536 9.98043 4 10.2348 4 10.5C4 10.7652 4.10536 11.0196 4.29289 11.2071C4.48043 11.3946 4.73478 11.5 5 11.5C5.26522 11.5 5.51957 11.3946 5.70711 11.2071C5.89464 11.0196 6 10.7652 6 10.5C6 10.2348 5.89464 9.98043 5.70711 9.79289C5.51957 9.60536 5.26522 9.5 5 9.5ZM19 9.5C18.7348 9.5 18.4804 9.60536 18.2929 9.79289C18.1054 9.98043 18 10.2348 18 10.5C18 10.7652 18.1054 11.0196 18.2929 11.2071C18.4804 11.3946 18.7348 11.5 19 11.5C19.2652 11.5 19.5196 11.3946 19.7071 11.2071C19.8946 11.0196 20 10.7652 20 10.5C20 10.2348 19.8946 9.98043 19.7071 9.79289C19.5196 9.60536 19.2652 9.5 19 9.5ZM5.75 15C5.55109 15 5.36032 15.079 5.21967 15.2197C5.07902 15.3603 5 15.5511 5 15.75C5 15.9489 5.07902 16.1397 5.21967 16.2803C5.36032 16.421 5.55109 16.5 5.75 16.5C5.94891 16.5 6.13968 16.421 6.28033 16.2803C6.42098 16.1397 6.5 15.9489 6.5 15.75C6.5 15.5511 6.42098 15.3603 6.28033 15.2197C6.13968 15.079 5.94891 15 5.75 15ZM18.25 15C18.0511 15 17.8603 15.079 17.7197 15.2197C17.579 15.3603 17.5 15.5511 17.5 15.75C17.5 15.9489 17.579 16.1397 17.7197 16.2803C17.8603 16.421 18.0511 16.5 18.25 16.5C18.4489 16.5 18.6397 16.421 18.7803 16.2803C18.921 16.1397 19 15.9489 19 15.75C19 15.5511 18.921 15.3603 18.7803 15.2197C18.6397 15.079 18.4489 15 18.25 15ZM7 18C6.73478 18 6.48043 18.1054 6.29289 18.2929C6.10536 18.4804 6 18.7348 6 19C6 19.2652 6.10536 19.5196 6.29289 19.7071C6.48043 19.8946 6.73478 20 7 20C7.26522 20 7.51957 19.8946 7.70711 19.7071C7.89464 19.5196 8 19.2652 8 19C8 18.7348 7.89464 18.4804 7.70711 18.2929C7.51957 18.1054 7.26522 18 7 18ZM17 18C16.7348 18 16.4804 18.1054 16.2929 18.2929C16.1054 18.4804 16 18.7348 16 19C16 19.2652 16.1054 19.5196 16.2929 19.7071C16.4804 19.8946 16.7348 20 17 20C17.2652 20 17.5196 19.8946 17.7071 19.7071C17.8946 19.5196 18 19.2652 18 19C18 18.7348 17.8946 18.4804 17.7071 18.2929C17.5196 18.1054 17.2652 18 17 18Z" fill="white"/>
<path d="M13.7419 5.18496C13.4232 5.5305 13.1952 6.00363 13.0318 6.51414C12.8616 7.04607 12.7583 7.62897 12.6984 8.17219C12.4898 8.06224 12.2522 8 12 8C11.7492 8 11.5127 8.06157 11.3049 8.17043C11.245 7.62771 11.1418 7.0455 10.9717 6.51414C10.8084 6.00363 10.5803 5.5305 10.2616 5.18496C9.93983 4.83605 9.5252 4.6176 9.00177 4.62502C8.93274 4.62599 8.87757 4.68275 8.87855 4.75177C8.87953 4.8208 8.93628 4.87597 9.00531 4.87499C9.4474 4.86872 9.79677 5.04968 10.0779 5.35445C10.3621 5.6626 10.5759 6.09743 10.7336 6.59034C10.9108 7.14397 11.0135 7.75881 11.0696 8.32337C10.7226 8.59811 10.5 9.02306 10.5 9.5C10.5 9.93845 10.6922 10.1847 10.866 10.4072C11.0885 10.6922 11.2808 10.9384 11 11.5V15.5C11 16.054 11.446 16.5 12 16.5C12.554 16.5 13 16.054 13 15.5V11.5C12.7192 10.9384 12.9115 10.6922 13.134 10.4072C13.3078 10.1847 13.5 9.93845 13.5 9.5C13.5 9.02457 13.2788 8.60079 12.9337 8.32598C12.9897 7.7607 13.0925 7.14483 13.2699 6.59034C13.4277 6.09743 13.6415 5.6626 13.9257 5.35445C14.2068 5.04968 14.5561 4.86872 14.9982 4.87499C15.0673 4.87597 15.124 4.8208 15.125 4.75177C15.126 4.68275 15.0708 4.62599 15.0018 4.62502C14.4783 4.6176 14.0637 4.83605 13.7419 5.18496Z" fill="white"/>
</svg>
