<svg width="24" height="24" viewBox="0 0 24 24" fill="none" xmlns="http://www.w3.org/2000/svg">
<path d="M7.54546 3.27273C6.99317 3.27273 6.54546 3.72044 6.54546 4.27273V19.7273C6.54546 20.2796 6.99317 20.7273 7.54546 20.7273H17.5455C18.0977 20.7273 18.5455 20.2796 18.5455 19.7273V4.27273C18.5455 3.72044 18.0977 3.27273 17.5455 3.27273H7.54546ZM7.63636 4.36364H17.4545V19.6364H7.63636V4.36364ZM9.81818 5.45455C9.21556 5.45455 8.72706 5.94306 8.72727 6.54545C8.72706 7.14785 9.21556 7.63636 9.81818 7.63636C10.4208 7.63636 10.9091 7.14785 10.9091 6.54545C10.9091 5.94306 10.4208 5.45455 9.81818 5.45455ZM15.2727 5.45455C14.6701 5.45455 14.1816 5.94303 14.1818 6.54545C14.1816 7.14788 14.6701 7.63636 15.2727 7.63636C15.8754 7.63636 16.3639 7.14788 16.3636 6.54545C16.3639 5.94303 15.8754 5.45455 15.2727 5.45455ZM12.5455 10.9091C10.4363 10.9091 8.72673 12.6185 8.72727 14.7273C8.72673 16.836 10.4363 18.5455 12.5455 18.5455C14.6542 18.5455 16.3636 16.836 16.3636 14.7273C16.3636 12.6185 14.6542 10.9091 12.5455 10.9091ZM12.5455 13.0909C13.4487 13.0909 14.1818 13.824 14.1818 14.7273C14.1818 15.6305 13.4487 16.3636 12.5455 16.3636C11.6422 16.3636 10.9091 15.6305 10.9091 14.7273C10.9091 13.824 11.6422 13.0909 12.5455 13.0909Z" fill="white"/>
</svg>
