<svg width="24" height="24" viewBox="0 0 24 24" fill="none" xmlns="http://www.w3.org/2000/svg">
<path fill-rule="evenodd" clip-rule="evenodd" d="M12 22C17.5228 22 22 17.5228 22 12C22 6.47715 17.5228 2 12 2C6.47715 2 2 6.47715 2 12C2 17.5228 6.47715 22 12 22ZM12 23C18.0751 23 23 18.0751 23 12C23 5.92487 18.0751 1 12 1C5.92487 1 1 5.92487 1 12C1 18.0751 5.92487 23 12 23Z" fill="white"/>
<path d="M17.4948 6.05755C17.555 6.03823 17.6313 6.01789 17.6643 6.01237C17.7833 5.99245 17.8323 5.99635 17.8345 6.02581C17.8406 6.10741 17.8257 6.29935 17.7931 6.55981C17.7588 6.83395 17.7477 6.98581 17.6847 8.04781C17.6698 8.29861 17.651 8.92501 17.6429 9.43981L17.6283 10.3758L16.6083 10.3878C16.0473 10.3944 15.5721 10.4075 15.5523 10.4171C15.5325 10.4266 15.3879 10.4507 15.231 10.4708C15.0741 10.4909 14.9332 10.5178 14.9178 10.5305C14.9025 10.5433 14.8418 10.5608 14.7831 10.5696C14.7243 10.5783 14.6544 10.599 14.6277 10.6156C14.601 10.6322 14.5342 10.6534 14.4791 10.6627C14.4241 10.672 14.3669 10.6942 14.352 10.7122C14.3372 10.73 14.2934 10.7516 14.2549 10.7601C14.2164 10.7686 14.1786 10.7856 14.1709 10.798C14.1633 10.8104 14.1218 10.8352 14.0788 10.8532C13.9716 10.898 13.6803 11.0869 13.6803 11.1117C13.6803 11.1227 13.67 11.1318 13.6574 11.1318C13.6019 11.1318 13.3815 11.3051 12.8743 11.7477C12.6063 11.9816 12.5763 12.0122 12.5763 12.0515C12.5763 12.093 12.855 12.4038 12.8922 12.4038C12.9042 12.4038 12.9481 12.4389 12.9899 12.4818C13.0317 12.5247 13.1312 12.6109 13.2111 12.6734C13.2909 12.7358 13.3734 12.8033 13.3943 12.8234C13.4152 12.8434 13.4394 12.8598 13.448 12.8598C13.4567 12.8598 13.526 12.903 13.602 12.9557C13.6781 13.0085 13.7494 13.0517 13.7605 13.0517C13.7716 13.0518 13.8081 13.0734 13.8417 13.0998C13.8753 13.1262 13.9216 13.1478 13.9446 13.1478C13.9676 13.1478 13.9989 13.1629 14.0143 13.1815C14.0297 13.1999 14.0715 13.2219 14.1072 13.2303C14.143 13.2386 14.2047 13.2606 14.2443 13.2791C14.3766 13.3408 14.5548 13.3918 14.7123 13.4129C14.7981 13.4245 14.9439 13.4467 15.0363 13.4624C15.141 13.4801 15.6609 13.4963 16.4163 13.5053L17.6283 13.5198L17.6435 14.3598C17.6744 16.0582 17.7455 17.1679 17.8558 17.6718C17.8835 17.7982 17.8329 17.8631 17.7248 17.8404C17.6849 17.832 17.5551 17.8154 17.4363 17.8034C17.3175 17.7914 17.1339 17.7699 17.0283 17.7556C16.6491 17.7041 16.0718 17.6812 14.8263 17.6683C14.13 17.6611 13.5579 17.6536 13.5551 17.6515C13.5522 17.6495 13.5435 17.2158 13.5358 16.6878C13.5186 15.5225 13.484 15.1873 13.3323 14.7198C13.3109 14.6538 13.2817 14.5566 13.2674 14.5038C13.2531 14.451 13.2267 14.3908 13.2089 14.3699C13.1909 14.3491 13.1763 14.3164 13.1763 14.2973C13.1763 14.2781 13.1585 14.237 13.1367 14.206C13.1149 14.1748 13.0707 14.0995 13.0386 14.0386C13.0064 13.9777 12.9594 13.9055 12.9342 13.8782C12.9089 13.851 12.8883 13.8202 12.8883 13.8097C12.8883 13.7902 12.7338 13.5818 12.6557 13.496C12.6318 13.4698 12.5705 13.3942 12.5195 13.328C12.4685 13.2619 12.4091 13.1916 12.3875 13.1718C12.3659 13.152 12.2943 13.072 12.2283 12.9939C12.0519 12.7853 11.9052 12.6438 11.8656 12.6438C11.8354 12.6438 11.6046 12.8667 11.3438 13.1478C11.2261 13.2746 10.9149 13.705 10.8699 13.8031C10.8567 13.8321 10.8196 13.899 10.7876 13.9518C10.7556 14.0046 10.7181 14.0748 10.7042 14.1078C10.6904 14.1408 10.6635 14.2002 10.6445 14.2398C10.569 14.3976 10.5133 14.5463 10.498 14.6308C10.4892 14.6798 10.4704 14.7414 10.4564 14.7678C10.3931 14.8861 10.3376 15.6971 10.3289 16.6278C10.3241 17.136 10.3149 17.575 10.3084 17.6034L10.2966 17.655L8.91041 17.6698C7.28885 17.6872 6.67931 17.7253 6.13745 17.8432C6.01745 17.8693 5.97455 17.8027 6.01457 17.6524C6.03281 17.5838 6.04787 17.4792 6.04799 17.4198C6.04817 17.3604 6.06917 17.1822 6.09473 17.0238C6.14291 16.7249 6.18101 15.8366 6.21311 14.2638L6.22829 13.5198L7.27229 13.5157C8.23853 13.5119 8.33147 13.5079 8.52029 13.4618C8.63249 13.4345 8.75975 13.412 8.80307 13.412C8.84639 13.4119 8.91659 13.3973 8.95907 13.3796C9.00155 13.3618 9.07787 13.3396 9.12869 13.33C9.17951 13.3205 9.26051 13.296 9.30869 13.2755C9.48137 13.2022 9.66095 13.1203 9.69629 13.0986C9.71609 13.0864 9.76469 13.0598 9.80429 13.0395C9.84389 13.0192 9.89807 12.9893 9.92465 12.9731C10.0966 12.8687 10.1657 12.8247 10.1763 12.813C10.1829 12.8057 10.2369 12.7676 10.2963 12.7286C10.3557 12.6895 10.4226 12.6409 10.445 12.6206C10.4675 12.6004 10.5471 12.5406 10.6221 12.4878C10.697 12.435 10.7984 12.354 10.8473 12.3078C10.8961 12.2616 10.9824 12.1917 11.0391 12.1525C11.1666 12.0643 11.218 11.989 11.1993 11.918C11.1634 11.7811 10.3565 11.0538 10.1043 10.931C10.0845 10.9214 10.0251 10.8875 9.97229 10.8559C9.91949 10.8241 9.80609 10.7638 9.72029 10.7218C9.63449 10.6798 9.53561 10.6307 9.50057 10.6126C9.46553 10.5946 9.41681 10.5798 9.39221 10.5798C9.36767 10.5798 9.30725 10.5582 9.25805 10.5318C9.20879 10.5054 9.14411 10.4836 9.11435 10.4833C9.08465 10.483 8.99009 10.465 8.90429 10.4433C8.77337 10.4102 8.54561 10.4015 7.48829 10.3898L6.22829 10.3758L6.21527 8.93581C6.20309 7.58671 6.17195 6.81697 6.11825 6.53581C6.02261 6.03571 6.01919 6.05305 6.20603 6.09025C6.33587 6.11611 6.75245 6.16465 6.96029 6.17809C7.77725 6.23107 8.11865 6.24337 9.13229 6.25657L10.3083 6.27181L10.3223 7.18381C10.3321 7.82881 10.3478 8.18011 10.3757 8.38381C10.3975 8.54221 10.4155 8.72347 10.4158 8.78659C10.416 8.84971 10.4312 8.93713 10.4495 8.98093C10.4678 9.02467 10.4902 9.11473 10.4993 9.18103C10.5084 9.24727 10.5309 9.33043 10.5492 9.36571C10.5675 9.40099 10.5894 9.46681 10.5979 9.51199C10.6064 9.55717 10.6284 9.60661 10.6468 9.62191C10.6652 9.63721 10.6803 9.66475 10.6803 9.68323C10.6803 9.82177 11.2562 10.6262 11.6684 11.0635C11.7387 11.138 11.8082 11.219 11.8227 11.2435C11.9232 11.4122 12.5864 10.8058 12.9498 10.2129C13.0803 9.99991 13.1273 9.91999 13.1429 9.88381C13.1514 9.86401 13.184 9.79177 13.2153 9.72331C13.2467 9.65479 13.2723 9.58405 13.2723 9.56611C13.2723 9.54811 13.2842 9.52147 13.2989 9.50683C13.4145 9.39121 13.4844 8.62615 13.4892 7.42381C13.4916 6.82579 13.5026 6.47047 13.5209 6.39181L13.5489 6.27181L14.5224 6.27865C15.8702 6.28807 17.0495 6.20035 17.4948 6.05755Z" fill="#F9FAFA"/>
</svg>
