<svg width="24" height="24" viewBox="0 0 24 24" fill="none" xmlns="http://www.w3.org/2000/svg">
<path d="M14.2777 3.27273C14.1808 3.27273 14.1519 3.4702 14.2116 3.73082C14.2116 3.73082 14.3833 4.56204 15.5348 5.17117C16.3357 5.56711 16.3352 5.79666 15.5305 6.03409C15.1798 6.13756 14.7525 6.33248 14.5824 6.46875C14.3019 6.69349 14.4044 6.78612 15.6839 7.46804C16.4598 7.8815 17.2385 8.34108 17.4141 8.48864C17.7188 8.74482 17.706 8.78013 17.1115 9.27699C16.4478 9.83166 15.6626 11.1284 15.6626 11.6697C15.6626 11.9624 15.7925 11.9879 16.8857 11.8956C17.5581 11.8388 18.2965 11.7663 18.5284 11.7358L18.9503 11.6804L18.8906 13.1527C18.8575 13.9623 18.7609 14.8262 18.6754 15.0724C18.59 15.3186 18.5546 15.557 18.5966 15.603C18.7733 15.7966 19.4934 15.37 19.9879 14.7784C20.4935 14.1736 20.526 14.1601 20.6335 14.5312C20.9956 15.1966 21.1563 15.7806 21.718 16.3636C21.8435 16.376 21.938 16.215 22.0185 15.8842C22.2663 14.866 22.1334 13.8808 21.6115 12.8629C21.3303 12.3144 21.0557 11.4492 21 10.9411C20.9443 10.4329 20.8538 9.84297 20.7976 9.62855C20.7122 9.30272 20.8759 9.11123 21.8033 8.46946C22.8593 7.73872 23.1337 7.323 22.7344 7.05256C22.6351 6.98536 22.1109 7.18899 21.571 7.50426C21.0312 7.81953 20.4841 8.07741 20.3544 8.07741C20.2247 8.07741 19.8185 7.68188 19.451 7.19957C18.8124 6.36135 18.782 6.26555 18.782 5.02841C18.782 3.85289 18.749 3.73019 18.4261 3.67969C18.1652 3.63887 18.0137 3.77293 17.8572 4.18679C17.74 4.49685 17.5865 4.75142 17.5142 4.75142C17.4419 4.75142 16.7209 4.4186 15.9141 4.01207C15.1072 3.60556 14.3713 3.27273 14.2777 3.27273ZM13.3253 4.40838C13.2529 4.41521 13.2192 4.41247 13.1378 4.42117C10.4731 4.7058 8.25099 6.35657 5.7081 9.93537C4.94029 11.016 3.95388 12.4026 3.51563 13.0185C1.66939 15.6128 1.74806 18.276 3.70526 19.3956C4.97021 20.1192 6.19149 20.4051 8.12642 20.4332C9.09898 20.4474 10.5248 20.5181 11.2926 20.5888C13.4348 20.7861 13.7031 20.781 15.2109 20.5185C16.8986 20.2246 18.1988 19.6125 19.2443 18.6222C19.6654 18.2233 20.1743 17.4629 20.5994 16.6896C20.4512 16.4501 20.3632 16.2248 20.2415 15.9822C20.0695 16.1268 19.9144 16.3141 19.7301 16.4233C19.5327 16.5403 19.3363 16.6425 19.0547 16.7045C18.7731 16.7666 18.219 16.8068 17.7912 16.3381C17.4118 15.9224 17.4939 15.7157 17.4886 15.5774C17.4834 15.4391 17.4962 15.3442 17.5099 15.2514C17.5376 15.0659 17.581 14.8965 17.6442 14.7145C17.5992 14.8441 17.683 14.5193 17.7188 14.201C17.7545 13.8827 17.7864 13.4852 17.8018 13.108L17.8104 12.9013C17.5142 12.9296 17.3128 12.9539 16.9773 12.9822C16.4193 13.0294 16.1355 13.0852 15.6669 12.9993C15.4326 12.9563 15.0413 12.8071 14.804 12.4666C14.5667 12.1261 14.5717 11.8234 14.5717 11.6697C14.5717 10.8716 14.8763 10.4561 15.2045 9.91406C15.4282 9.54474 15.7343 9.23191 16.027 8.91051C15.7627 8.75791 15.4772 8.59346 15.1726 8.43111C14.5253 8.08618 14.2031 7.95636 13.8175 7.60653C13.7211 7.51908 13.6076 7.40638 13.5043 7.2081C13.4009 7.00981 13.3339 6.69251 13.3871 6.41761C13.4934 5.86783 13.7787 5.71792 13.9027 5.61861C14.0252 5.52044 14.1364 5.52019 14.25 5.45242C14.0174 5.23444 13.666 5.02546 13.532 4.82173C13.4344 4.67339 13.3828 4.54023 13.3253 4.40838ZM12.4986 5.8125C12.4418 5.95537 12.3469 6.048 12.3153 6.21094C12.2054 6.77943 12.2978 7.21961 12.5092 7.64915C12.4136 7.63685 12.313 7.6332 12.2088 7.64702C11.8584 7.69345 11.4839 7.87547 11.2479 8.11151C10.8282 8.53112 10.7935 9.17845 11.1712 9.55611C11.5488 9.93376 12.1962 9.89902 12.6158 9.4794C12.8807 9.21443 13.0559 8.78097 13.0696 8.39702C13.0737 8.40078 13.0806 8.41055 13.0845 8.41406C13.5036 8.79421 13.9152 8.98019 14.3778 9.21946C14.3421 9.27289 14.3059 9.29229 14.2713 9.34943C13.97 9.84702 13.4808 10.5941 13.4808 11.6697C13.4808 11.7997 13.4943 12.4957 13.9091 13.0909C14.0793 13.3352 14.2707 13.5047 14.4652 13.6449C14.1105 14.0636 14.0876 14.6544 14.4439 15.0107C14.8215 15.3883 15.4689 15.3536 15.8885 14.9339C16.0969 14.7256 16.2615 14.4093 16.3295 14.0966C16.4306 14.0877 16.5329 14.08 16.6342 14.071C16.634 14.0734 16.6345 14.0771 16.6342 14.0795C16.6223 14.1856 16.598 14.3211 16.5788 14.4226C16.5692 14.4733 16.5647 14.4725 16.549 14.6016C16.5485 14.6055 16.5474 14.6141 16.5469 14.6186C16.5034 14.7741 16.4541 14.9278 16.4297 15.0916C16.4144 15.1946 16.3892 15.3938 16.3977 15.6179C16.3914 15.4512 16.3591 15.7576 16.4361 16.0952C16.513 16.4327 16.709 16.7699 16.9858 17.0732C17.4736 17.6077 18.032 17.742 18.5327 17.7741C18.5242 17.7828 18.5022 17.8221 18.4943 17.8295C17.6137 18.6637 16.5522 19.1784 15.0234 19.4446C14.0688 19.6108 13.6853 19.6598 12.9972 19.6278C13.249 19.6072 13.5048 19.4994 13.7067 19.2976C14.1263 18.878 14.3741 18.0176 13.9964 17.6399C13.902 17.5455 13.7766 17.4907 13.6364 17.4673C13.5312 17.4498 13.4165 17.4497 13.2997 17.4652C12.9494 17.5116 12.5748 17.6937 12.3388 17.9297C11.9192 18.3493 11.8844 18.9966 12.2621 19.3743C12.4297 19.5419 12.6518 19.6139 12.8821 19.6214C12.5151 19.6003 12.0807 19.5655 11.3928 19.5021C10.5683 19.4263 9.15128 19.357 8.14134 19.3423C6.30717 19.3157 5.35623 19.0844 4.24645 18.4496C3.58601 18.0718 3.29922 17.5489 3.27486 16.728C3.25049 15.907 3.5875 14.7988 4.40412 13.6513C4.84256 13.0352 5.82849 11.6492 6.59659 10.5682C8.77281 7.50543 10.5433 6.26723 12.4986 5.8125ZM7.84517 9.82883C7.4948 9.87527 7.12027 10.0573 6.88423 10.2933C6.46462 10.7129 6.42987 11.3603 6.80753 11.7379C7.18519 12.1156 7.83251 12.0808 8.25213 11.6612C8.67175 11.2416 8.91956 10.3812 8.5419 10.0036C8.44749 9.90914 8.3221 9.8543 8.18182 9.83097C8.07661 9.81347 7.96196 9.81336 7.84517 9.82883ZM11.1179 12.0107C10.7675 12.0571 10.393 12.2391 10.157 12.4751C9.73734 12.8948 9.7026 13.5421 10.0803 13.9197C10.4579 14.2974 11.1052 14.2627 11.5249 13.843C11.9445 13.4234 12.1923 12.563 11.8146 12.1854C11.7202 12.091 11.5948 12.0361 11.4545 12.0128C11.3493 11.9952 11.2347 11.9952 11.1179 12.0107ZM5.66335 14.1925C5.31299 14.2389 4.93845 14.4209 4.70242 14.657C4.2828 15.0766 4.24805 15.7239 4.62571 16.1016C5.00337 16.4792 5.6507 16.4445 6.07031 16.0249C6.48993 15.6052 6.73774 14.7448 6.36009 14.3672C6.26567 14.2728 6.14029 14.2179 6 14.1946C5.89479 14.177 5.78014 14.177 5.66335 14.1925ZM10.027 16.3743C9.67662 16.4207 9.30209 16.6027 9.06605 16.8388C8.64643 17.2584 8.61169 17.9057 8.98935 18.2834C9.367 18.661 10.0143 18.6263 10.434 18.2067C10.8536 17.7871 11.1014 16.9267 10.7237 16.549C10.6293 16.4546 10.5039 16.3998 10.3636 16.3764C10.2584 16.3589 10.1438 16.3588 10.027 16.3743Z" fill="white"/>
</svg>
