<svg width="24" height="24" viewBox="0 0 24 24" fill="none" xmlns="http://www.w3.org/2000/svg">
<path d="M11.9988 2C6.48677 2 2 6.48926 2 12.0012C2 17.5132 6.48677 22 11.9988 22C17.5107 22 22 17.5132 22 12.0012C22 6.48926 17.5107 2 11.9988 2ZM11.9988 3.76155C16.5593 3.76155 20.2384 7.44069 20.2384 12.0012C20.2384 16.5618 16.5593 20.2384 11.9988 20.2384C7.43818 20.2384 3.76156 16.5618 3.76156 12.0012C3.76156 7.44069 7.43818 3.76155 11.9988 3.76155ZM9.56448 5.42345C6.85046 6.69479 5.112 9.43029 5.112 12.4273H7.85026C7.85026 10.4865 8.96803 8.72835 10.7256 7.90507L9.56448 5.42345ZM12.0885 9.53706C11.7648 9.53691 11.4443 9.60054 11.1453 9.72432C10.8462 9.8481 10.5745 10.0296 10.3457 10.2585C10.1168 10.4873 9.93532 10.759 9.81154 11.0581C9.68775 11.3571 9.62412 11.6776 9.62427 12.0012C9.62462 12.6545 9.88443 13.2808 10.3465 13.7424C10.8087 14.2041 11.4352 14.4632 12.0885 14.4629C12.7412 14.4626 13.3672 14.2031 13.8287 13.7415C14.2903 13.28 14.5498 12.654 14.5501 12.0012C14.5505 11.348 14.2913 10.7215 13.8296 10.2594C13.368 9.79723 12.7417 9.53741 12.0885 9.53706V9.53706ZM16.3391 11.5976C16.3391 13.5384 15.2213 15.2966 13.4638 16.1198L14.6249 18.6015C17.3389 17.3301 19.0774 14.5946 19.0774 11.5976H16.3391Z" fill="white"/>
</svg>
