<svg width="24" height="24" viewBox="0 0 24 24" fill="none" xmlns="http://www.w3.org/2000/svg">
<path fill-rule="evenodd" clip-rule="evenodd" d="M11.832 3C13.0359 2.98483 14.2306 3.21137 15.3454 3.66621C16.4602 4.12106 17.4723 4.79495 18.322 5.648C20.0025 7.33484 20.9461 9.6189 20.9461 12C20.9461 14.3811 20.0025 16.6652 18.322 18.352C17.2802 19.3974 15.9974 20.1706 14.5864 20.6035C13.1754 21.0363 11.6797 21.1156 10.2309 20.8342C8.78206 20.5528 7.4247 19.9194 6.27834 18.9898C5.13198 18.0603 4.23182 16.8631 3.65714 15.5037C3.08246 14.1443 2.85091 12.6644 2.98288 11.1945C3.11485 9.72453 3.6063 8.30958 4.41393 7.07429C5.22155 5.839 6.32057 4.82128 7.61417 4.11079C8.90777 3.40029 10.3562 3.01883 11.832 3ZM7.426 7.5C7.47324 7.49632 7.52063 7.49498 7.568 7.496C7.82121 7.50185 8.06835 7.57472 8.28424 7.70717C8.50013 7.83961 8.67705 8.02692 8.797 8.25C9.217 9 9.623 9.69 10.043 10.41C10.343 10.928 10.636 11.453 10.943 11.963C11.1381 12.3175 11.4216 12.6156 11.7659 12.8283C12.1102 13.041 12.5036 13.1611 12.908 13.177C13.5211 13.2132 14.1247 13.0123 14.5938 12.6158C15.0629 12.2193 15.3616 11.6576 15.428 11.047V10.801C15.4301 10.4132 15.3425 10.0303 15.172 9.682C15.079 9.48901 15.0283 9.27833 15.0235 9.06414C15.0187 8.84995 15.0599 8.63722 15.1442 8.44026C15.2285 8.2433 15.354 8.06669 15.5123 7.92231C15.6706 7.77794 15.858 7.66914 16.0619 7.60325C16.2657 7.53737 16.4813 7.51591 16.6942 7.54034C16.907 7.56477 17.1122 7.63451 17.2958 7.74486C17.4794 7.85522 17.6373 8.00364 17.7588 8.18012C17.8802 8.3566 17.9625 8.55706 18 8.768C18.0378 9.11042 17.9611 9.45571 17.782 9.75L13.335 17.512C13.2176 17.7404 13.0434 17.9349 12.8293 18.0767C12.6151 18.2185 12.3681 18.303 12.112 18.322C11.8288 18.3532 11.5428 18.2984 11.2913 18.1646C11.0397 18.0308 10.8344 17.8243 10.702 17.572C9.75 15.952 8.841 14.332 7.911 12.75L6.21 9.75C6.08132 9.528 6.01174 9.27671 6.00791 9.02015C6.00409 8.76358 6.06614 8.51033 6.18813 8.28459C6.31013 8.05886 6.488 7.86819 6.70472 7.73082C6.92145 7.59346 7.16979 7.51398 7.426 7.5Z" fill="white"/>
</svg>
