<svg width="24" height="24" viewBox="0 0 24 24" fill="none" xmlns="http://www.w3.org/2000/svg">
<path d="M10.7096 3.27273C10.2597 3.27273 9.86527 3.57309 9.74561 4.00672L5.73366 18.5455H4.27273C3.72044 18.5455 3.27273 18.9932 3.27273 19.5455V19.7273C3.27273 20.2796 3.72044 20.7273 4.27273 20.7273H19.7273C20.2796 20.7273 20.7273 20.2796 20.7273 19.7273V19.5455C20.7273 18.9932 20.2796 18.5455 19.7273 18.5455H18.2663L14.2544 4.00672C14.1347 3.57309 13.7403 3.27273 13.2904 3.27273H10.7096ZM10.7791 4.36364H13.2209L13.8217 6.54546H10.1783L10.7791 4.36364ZM9.27486 9.81818H14.7251L15.6286 13.0909H8.37145L9.27486 9.81818ZM7.46804 16.3636H16.532L17.1328 18.5455H6.86719L7.46804 16.3636Z" fill="white"/>
</svg>
